<svg id="behance" xmlns="http://www.w3.org/2000/svg" width="49.652" height="49.652" viewBox="0 0 49.652 49.652">
  <g id="Group_64" data-name="Group 64">
    <g id="Group_63" data-name="Group 63">
      <path id="Path_57" data-name="Path 57" d="M20.894,20.686c0-1.9-1.293-1.9-1.293-1.9H14.28v4.078h4.991C20.134,22.864,20.894,22.589,20.894,20.686Z" fill="#383838"/>
      <path id="Path_58" data-name="Path 58" d="M33.221,22.864a3.267,3.267,0,0,0-3.215,2.814h6A2.718,2.718,0,0,0,33.221,22.864Z" fill="#383838"/>
      <path id="Path_59" data-name="Path 59" d="M19.6,25.68H14.283v4.886h4.711c.08,0,.2,0,.339,0,.757-.019,2.2-.235,2.2-2.374C21.529,25.656,19.6,25.68,19.6,25.68Z" fill="#383838"/>
      <path id="Path_60" data-name="Path 60" d="M24.826,0A24.826,24.826,0,1,0,49.652,24.826,24.854,24.854,0,0,0,24.826,0Zm4.393,16.615h7.539v2.251H29.219Zm-3.812,11.8c0,5.577-5.806,5.395-5.806,5.395H10.093V15.539H19.6c2.891,0,5.172,1.6,5.172,4.867a3.172,3.172,0,0,1-2.788,3.477C25.66,23.882,25.407,28.419,25.407,28.419Zm14.105-.3H30.041A2.974,2.974,0,0,0,33.258,31.3c3.036,0,2.93-1.966,2.93-1.966h3.219c0,5.218-6.254,4.859-6.254,4.859-7.5,0-7.021-6.985-7.021-6.985s-.007-7.022,7.021-7.022C40.549,20.187,39.51,28.119,39.512,28.119Z" fill="#383838"/>
    </g>
  </g>
</svg>
