<svg xmlns="http://www.w3.org/2000/svg" width="258.978" height="230.077" viewBox="0 0 258.978 230.077">
  <g id="noun_coding_749831" transform="translate(-1.021 -7.684)">
    <g id="Group_72" data-name="Group 72" transform="translate(1.022 7.684)">
      <path id="Path_175" data-name="Path 175" d="M99.866,18.747a1.481,1.481,0,0,0,2.043,0,1.361,1.361,0,0,0,0-2.043l-3.269-3.269a1.361,1.361,0,0,0-2.043,0c-.409.613-.613,1.634,0,2.043Z" transform="translate(98.954 -2.166)"/>
      <path id="Path_176" data-name="Path 176" d="M105.1,24.047a1.481,1.481,0,0,0,2.043,0,1.361,1.361,0,0,0,0-2.043l-3.269-3.269a1.445,1.445,0,0,0-2.043,2.043Z" transform="translate(104.32 3.362)"/>
      <path id="Path_177" data-name="Path 177" d="M97.656,24.418a1.561,1.561,0,0,0,1.022-.409l3.269-3.269a1.361,1.361,0,0,0,0-2.043c-.613-.409-1.634-.613-2.043,0l-3.269,3.065a1.361,1.361,0,0,0,0,2.043C97.043,24.214,97.248,24.418,97.656,24.418Z" transform="translate(98.917 3.399)"/>
      <path id="Path_178" data-name="Path 178" d="M102.956,19.118a1.561,1.561,0,0,0,1.022-.409l3.269-3.269a1.361,1.361,0,0,0,0-2.043c-.613-.409-1.634-.613-2.043,0l-3.269,3.269a1.361,1.361,0,0,0,0,2.043C102.139,19.118,102.548,19.118,102.956,19.118Z" transform="translate(104.424 -2.129)"/>
      <path id="Path_179" data-name="Path 179" d="M5.141,111.135a1.361,1.361,0,0,0-2.043,0c-.409.613-.613,1.634,0,2.043l3.269,3.269a1.481,1.481,0,0,0,2.043,0,1.361,1.361,0,0,0,0-2.043Z" transform="translate(1.806 99.737)"/>
      <path id="Path_180" data-name="Path 180" d="M10.378,116.435a1.361,1.361,0,0,0-2.043,0,1.361,1.361,0,0,0,0,2.043l3.269,3.269a1.481,1.481,0,0,0,2.043,0,1.361,1.361,0,0,0,0-2.043Z" transform="translate(7.192 105.265)"/>
      <path id="Path_181" data-name="Path 181" d="M6.3,116.435,3.035,119.7a1.361,1.361,0,0,0,0,2.043,1.32,1.32,0,0,0,1.022.409,2.157,2.157,0,0,0,1.022-.409l3.269-3.269a1.361,1.361,0,0,0,0-2.043A1.361,1.361,0,0,0,6.3,116.435Z" transform="translate(1.664 105.265)"/>
      <path id="Path_182" data-name="Path 182" d="M11.6,111.056l-3.269,3.269a1.361,1.361,0,0,0,0,2.043,1.481,1.481,0,0,0,2.043,0l3.269-3.269a1.361,1.361,0,0,0,0-2.043A1.856,1.856,0,0,0,11.6,111.056Z" transform="translate(7.192 99.816)"/>
      <path id="Path_183" data-name="Path 183" d="M121.3,70.847a1.481,1.481,0,0,0,2.043,0,1.361,1.361,0,0,0,0-2.043l-3.269-3.269a1.445,1.445,0,0,0-2.043,2.043Z" transform="translate(121.126 52.175)"/>
      <path id="Path_184" data-name="Path 184" d="M126.5,76.047a1.481,1.481,0,0,0,2.043,0,1.361,1.361,0,0,0,0-2.043l-3.269-3.269a1.445,1.445,0,0,0-2.043,2.043Z" transform="translate(126.55 57.599)"/>
      <path id="Path_185" data-name="Path 185" d="M119.056,76.555a1.561,1.561,0,0,0,1.022-.409l3.269-3.269a1.445,1.445,0,0,0-2.043-2.043L118.035,74.1a1.361,1.361,0,0,0,0,2.043C118.443,76.351,118.648,76.555,119.056,76.555Z" transform="translate(121.126 57.703)"/>
      <path id="Path_186" data-name="Path 186" d="M124.356,71.218a1.561,1.561,0,0,0,1.022-.409l3.269-3.269a1.361,1.361,0,0,0,0-2.043c-.613-.409-1.634-.613-2.043,0l-3.269,3.269a1.361,1.361,0,0,0,0,2.043C123.539,71.218,123.948,71.218,124.356,71.218Z" transform="translate(126.655 52.213)"/>
      <path id="Path_187" data-name="Path 187" d="M4.73,55.472a1.4,1.4,0,0,0,1.43-1.43V29.73A1.4,1.4,0,0,0,4.73,28.3,1.4,1.4,0,0,0,3.3,29.73V53.838A1.579,1.579,0,0,0,4.73,55.472Z" transform="translate(2.42 13.818)"/>
      <path id="Path_188" data-name="Path 188" d="M4.73,57.241a1.4,1.4,0,0,0,1.43-1.43V47.23A1.4,1.4,0,0,0,4.73,45.8,1.4,1.4,0,0,0,3.3,47.23v8.581A1.535,1.535,0,0,0,4.73,57.241Z" transform="translate(2.42 32.071)"/>
      <path id="Path_189" data-name="Path 189" d="M122.03,39.172a1.4,1.4,0,0,0,1.43-1.43V13.43a1.43,1.43,0,1,0-2.86,0V37.538A1.457,1.457,0,0,0,122.03,39.172Z" transform="translate(124.282 -3.183)"/>
      <path id="Path_190" data-name="Path 190" d="M122.03,40.941a1.4,1.4,0,0,0,1.43-1.43V30.93a1.43,1.43,0,1,0-2.86,0v8.581A1.4,1.4,0,0,0,122.03,40.941Z" transform="translate(124.282 15.07)"/>
      <path id="Path_191" data-name="Path 191" d="M65.151,26.3A7.151,7.151,0,1,0,58,19.151,7.106,7.106,0,0,0,65.151,26.3Zm0-11.237a4.086,4.086,0,1,1-4.086,4.086A3.972,3.972,0,0,1,65.151,15.065Z" transform="translate(59.241 -3.183)"/>
      <path id="Path_192" data-name="Path 192" d="M83.251,111.8a7.151,7.151,0,1,0,7.151,7.151A7.106,7.106,0,0,0,83.251,111.8Zm0,11.237a4.086,4.086,0,1,1,4.086-4.086A4.1,4.1,0,0,1,83.251,123.037Z" transform="translate(78.047 100.911)"/>
      <path id="Path_193" data-name="Path 193" d="M14.8,85.951A7.239,7.239,0,0,0,7.651,78.8a7.151,7.151,0,0,0,0,14.3A7.239,7.239,0,0,0,14.8,85.951Zm-11.237,0a4.086,4.086,0,1,1,4.086,4.086A4.1,4.1,0,0,1,3.565,85.951Z" transform="translate(-0.5 66.491)"/>
      <path id="Path_194" data-name="Path 194" d="M17.5,14.43a1.4,1.4,0,0,0,1.43,1.43H50.6a1.43,1.43,0,1,0,0-2.86H19.134A1.579,1.579,0,0,0,17.5,14.43Z" transform="translate(17.231 -2.14)"/>
      <path id="Path_195" data-name="Path 195" d="M8.946,15.86H19.161a1.43,1.43,0,0,0,0-2.86H8.946a1.4,1.4,0,0,0-1.43,1.43C7.312,15.247,8.129,15.86,8.946,15.86Z" transform="translate(6.785 -2.14)"/>
      <path id="Path_196" data-name="Path 196" d="M9.034,10.576H31.1a1.43,1.43,0,1,0,0-2.86H9.034A1.448,1.448,0,0,0,7.4,9.146,1.579,1.579,0,0,0,9.034,10.576Z" transform="translate(6.697 -7.684)"/>
      <path id="Path_197" data-name="Path 197" d="M24.33,10.56h7.151a1.43,1.43,0,0,0,0-2.86H24.33a1.43,1.43,0,1,0,0,2.86Z" transform="translate(22.775 -7.668)"/>
      <path id="Path_198" data-name="Path 198" d="M135.027,115.03a1.4,1.4,0,0,0-1.43-1.43H101.93a1.43,1.43,0,0,0,0,2.86H133.6A1.4,1.4,0,0,0,135.027,115.03Z" transform="translate(103.317 102.788)"/>
      <path id="Path_199" data-name="Path 199" d="M121,115.03a1.4,1.4,0,0,0,1.43,1.43h10.215a1.43,1.43,0,0,0,0-2.86H122.43A1.4,1.4,0,0,0,121,115.03Z" transform="translate(124.699 102.788)"/>
      <path id="Path_200" data-name="Path 200" d="M138.795,118.9H116.73a1.43,1.43,0,0,0,0,2.86h22.065a1.43,1.43,0,0,0,0-2.86Z" transform="translate(118.754 108.316)"/>
      <path id="Path_201" data-name="Path 201" d="M115.681,118.9H108.53a1.43,1.43,0,1,0,0,2.86h7.151a1.43,1.43,0,1,0,0-2.86Z" transform="translate(110.201 108.316)"/>
      <path id="Path_202" data-name="Path 202" d="M242.675,107.668l2.243-3.882a3.036,3.036,0,0,0,0-2.656,2.765,2.765,0,0,0-2.243-1.43H8a2.507,2.507,0,0,0-2.243,1.43,3.036,3.036,0,0,0,0,2.656L8,107.668A22.152,22.152,0,0,0,26.96,118.292H223.714A22.673,22.673,0,0,0,242.675,107.668ZM10.649,106.033,8.61,102.765H241.86l-2.039,3.269a19.235,19.235,0,0,1-16.311,9.194H26.96A18.786,18.786,0,0,1,10.649,106.033Z" transform="translate(4.663 88.29)"/>
      <path id="Path_203" data-name="Path 203" d="M76.8,71.909a1.473,1.473,0,1,0-1.634,2.452L94.776,86.618,75.163,98.876a1.4,1.4,0,0,0-.409,2.043,1.456,1.456,0,0,0,1.226.613,1.228,1.228,0,0,0,.817-.2L98.454,87.844a1.532,1.532,0,0,0,0-2.452Z" transform="translate(76.321 59.081)"/>
      <path id="Path_204" data-name="Path 204" d="M66.312,72.363a1.4,1.4,0,0,0-2.043-.409L42.613,85.439a1.532,1.532,0,0,0,0,2.452l21.656,13.484a1.228,1.228,0,0,0,.817.2,1.456,1.456,0,0,0,1.226-.613,1.584,1.584,0,0,0-.409-2.043L46.086,86.665,65.7,74.406A1.416,1.416,0,0,0,66.312,72.363Z" transform="translate(42.61 59.035)"/>
      <path id="Path_205" data-name="Path 205" d="M77.2,68.238c-.817-.2-1.634,0-1.839.817L59.838,109.711c-.2.817,0,1.634.817,1.839h.613a1.536,1.536,0,0,0,1.43-1.022L78.225,69.872A1.342,1.342,0,0,0,77.2,68.238Z" transform="translate(61.07 55.397)"/>
      <path id="Path_206" data-name="Path 206" d="M38.834,27.03V52.977H26.4A10.886,10.886,0,0,0,15.6,63.8V169.02a1.4,1.4,0,0,0,1.427,1.43H212.27a1.4,1.4,0,0,0,1.427-1.43V64.009a10.886,10.886,0,0,0-10.8-10.828H190.463V27.03a1.4,1.4,0,0,0-1.427-1.43H40.26A1.4,1.4,0,0,0,38.834,27.03ZM203.1,56.041a7.968,7.968,0,0,1,7.948,7.968V167.795H18.657V64.009a7.968,7.968,0,0,1,7.948-7.968H38.834v42.9a1.4,1.4,0,0,0,1.427,1.43H189.036a1.4,1.4,0,0,0,1.427-1.43v-42.9ZM41.891,28.665H187.61V97.719H41.891Z" transform="translate(15.25 11.002)"/>
      <path id="Path_207" data-name="Path 207" d="M32.73,41.237H44.171a1.4,1.4,0,0,0,1.43-1.43V31.43A1.4,1.4,0,0,0,44.171,30H32.73a1.4,1.4,0,0,0-1.43,1.43v8.376A1.535,1.535,0,0,0,32.73,41.237Zm1.43-8.581h8.376v5.516H34.16Z" transform="translate(31.501 15.591)"/>
      <path id="Path_208" data-name="Path 208" d="M42.53,41.237H53.971a1.4,1.4,0,0,0,1.43-1.43V31.43A1.4,1.4,0,0,0,53.971,30H42.53a1.4,1.4,0,0,0-1.43,1.43v8.376A1.535,1.535,0,0,0,42.53,41.237Zm1.43-8.581h8.376v5.516H43.96Z" transform="translate(41.682 15.591)"/>
      <path id="Path_209" data-name="Path 209" d="M52.33,41.237H63.771a1.4,1.4,0,0,0,1.43-1.43V31.43A1.4,1.4,0,0,0,63.771,30H52.33a1.4,1.4,0,0,0-1.43,1.43v8.376A1.535,1.535,0,0,0,52.33,41.237Zm1.634-8.581h8.376v5.516H53.965Z" transform="translate(51.864 15.591)"/>
      <path id="Path_210" data-name="Path 210" d="M62.334,41.237H73.571A1.4,1.4,0,0,0,75,39.807V31.43A1.4,1.4,0,0,0,73.571,30H62.13a1.4,1.4,0,0,0-1.43,1.43v8.376A1.583,1.583,0,0,0,62.334,41.237Zm1.43-8.581h8.376v5.516H63.765V32.656Z" transform="translate(62.046 15.591)"/>
      <path id="Path_211" data-name="Path 211" d="M72.046,41.237H83.487a1.4,1.4,0,0,0,1.43-1.43V31.43A1.4,1.4,0,0,0,83.487,30H72.046a1.4,1.4,0,0,0-1.43,1.43v8.376C70.412,40.419,71.229,41.237,72.046,41.237Zm1.43-8.581h8.376v5.516H73.476Z" transform="translate(72.316 15.591)"/>
      <path id="Path_212" data-name="Path 212" d="M81.83,41.237H93.271a1.4,1.4,0,0,0,1.43-1.43V31.43A1.4,1.4,0,0,0,93.271,30H81.83a1.4,1.4,0,0,0-1.43,1.43v8.376A1.535,1.535,0,0,0,81.83,41.237Zm1.43-8.581h8.376v5.516H83.26Z" transform="translate(82.514 15.591)"/>
      <path id="Path_213" data-name="Path 213" d="M91.63,41.237h11.441a1.4,1.4,0,0,0,1.43-1.43V31.43a1.4,1.4,0,0,0-1.43-1.43H91.63a1.4,1.4,0,0,0-1.43,1.43v8.376A1.535,1.535,0,0,0,91.63,41.237Zm1.634-8.581h8.376v5.516H93.265Z" transform="translate(92.696 15.591)"/>
      <path id="Path_214" data-name="Path 214" d="M32.73,48.737H44.171a1.4,1.4,0,0,0,1.43-1.43V38.93a1.4,1.4,0,0,0-1.43-1.43H32.73a1.4,1.4,0,0,0-1.43,1.43v8.376A1.4,1.4,0,0,0,32.73,48.737Zm1.43-8.376h8.376v5.516H34.16Z" transform="translate(31.501 23.414)"/>
      <path id="Path_215" data-name="Path 215" d="M42.53,48.737H53.971a1.4,1.4,0,0,0,1.43-1.43V38.93a1.4,1.4,0,0,0-1.43-1.43H42.53a1.4,1.4,0,0,0-1.43,1.43v8.376A1.4,1.4,0,0,0,42.53,48.737Zm1.43-8.376h8.376v5.516H43.96Z" transform="translate(41.682 23.414)"/>
      <path id="Path_216" data-name="Path 216" d="M52.33,48.737H63.771a1.4,1.4,0,0,0,1.43-1.43V38.93a1.4,1.4,0,0,0-1.43-1.43H52.33a1.4,1.4,0,0,0-1.43,1.43v8.376A1.4,1.4,0,0,0,52.33,48.737Zm1.634-8.376h8.376v5.516H53.965Z" transform="translate(51.864 23.414)"/>
      <path id="Path_217" data-name="Path 217" d="M62.334,48.737H73.571A1.4,1.4,0,0,0,75,47.307V38.93a1.4,1.4,0,0,0-1.43-1.43H62.13a1.4,1.4,0,0,0-1.43,1.43v8.376A1.457,1.457,0,0,0,62.334,48.737Zm1.43-8.376h8.376v5.516H63.765V40.36Z" transform="translate(62.046 23.414)"/>
      <path id="Path_218" data-name="Path 218" d="M72.046,48.737H83.487a1.4,1.4,0,0,0,1.43-1.43V38.93a1.4,1.4,0,0,0-1.43-1.43H72.046a1.4,1.4,0,0,0-1.43,1.43v8.376C70.412,48.124,71.229,48.737,72.046,48.737Zm1.43-8.376h8.376v5.516H73.476Z" transform="translate(72.316 23.414)"/>
      <path id="Path_219" data-name="Path 219" d="M81.83,48.737H93.271a1.4,1.4,0,0,0,1.43-1.43V38.93a1.4,1.4,0,0,0-1.43-1.43H81.83a1.4,1.4,0,0,0-1.43,1.43v8.376A1.4,1.4,0,0,0,81.83,48.737Zm1.43-8.376h8.376v5.516H83.26Z" transform="translate(82.514 23.414)"/>
      <path id="Path_220" data-name="Path 220" d="M91.63,48.737h11.441a1.4,1.4,0,0,0,1.43-1.43V38.93a1.4,1.4,0,0,0-1.43-1.43H91.63a1.4,1.4,0,0,0-1.43,1.43v8.376A1.4,1.4,0,0,0,91.63,48.737Zm1.634-8.376h8.376v5.516H93.265Z" transform="translate(92.696 23.414)"/>
      <path id="Path_221" data-name="Path 221" d="M32.73,56.237H44.171a1.4,1.4,0,0,0,1.43-1.43V46.43A1.4,1.4,0,0,0,44.171,45H32.73a1.4,1.4,0,0,0-1.43,1.43v8.376A1.4,1.4,0,0,0,32.73,56.237Zm1.43-8.376h8.376v5.516H34.16Z" transform="translate(31.501 31.237)"/>
      <path id="Path_222" data-name="Path 222" d="M42.53,56.237H53.971a1.4,1.4,0,0,0,1.43-1.43V46.43A1.4,1.4,0,0,0,53.971,45H42.53a1.4,1.4,0,0,0-1.43,1.43v8.376A1.4,1.4,0,0,0,42.53,56.237Zm1.43-8.376h8.376v5.516H43.96Z" transform="translate(41.682 31.237)"/>
      <path id="Path_223" data-name="Path 223" d="M52.33,56.237H63.771a1.4,1.4,0,0,0,1.43-1.43V46.43A1.4,1.4,0,0,0,63.771,45H52.33a1.4,1.4,0,0,0-1.43,1.43v8.376A1.4,1.4,0,0,0,52.33,56.237Zm1.634-8.376h8.376v5.516H53.965Z" transform="translate(51.864 31.237)"/>
      <path id="Path_224" data-name="Path 224" d="M62.334,56.237H73.571A1.4,1.4,0,0,0,75,54.807V46.43A1.4,1.4,0,0,0,73.571,45H62.13a1.4,1.4,0,0,0-1.43,1.43v8.376A1.457,1.457,0,0,0,62.334,56.237Zm1.43-8.376h8.376v5.516H63.765V47.86Z" transform="translate(62.046 31.237)"/>
      <path id="Path_225" data-name="Path 225" d="M72.046,56.237H83.487a1.4,1.4,0,0,0,1.43-1.43V46.43A1.4,1.4,0,0,0,83.487,45H72.046a1.4,1.4,0,0,0-1.43,1.43v8.376C70.412,55.624,71.229,56.237,72.046,56.237Zm1.43-8.376h8.376v5.516H73.476Z" transform="translate(72.316 31.237)"/>
      <path id="Path_226" data-name="Path 226" d="M81.83,56.237H93.271a1.4,1.4,0,0,0,1.43-1.43V46.43A1.4,1.4,0,0,0,93.271,45H81.83a1.4,1.4,0,0,0-1.43,1.43v8.376A1.4,1.4,0,0,0,81.83,56.237Zm1.43-8.376h8.376v5.516H83.26Z" transform="translate(82.514 31.237)"/>
      <path id="Path_227" data-name="Path 227" d="M91.63,56.237h11.441a1.4,1.4,0,0,0,1.43-1.43V46.43a1.4,1.4,0,0,0-1.43-1.43H91.63a1.4,1.4,0,0,0-1.43,1.43v8.376A1.4,1.4,0,0,0,91.63,56.237Zm1.634-8.376h8.376v5.516H93.265Z" transform="translate(92.696 31.237)"/>
      <path id="Path_228" data-name="Path 228" d="M32.73,63.837H44.171a1.4,1.4,0,0,0,1.43-1.43V54.03a1.4,1.4,0,0,0-1.43-1.43H32.73a1.4,1.4,0,0,0-1.43,1.43v8.376A1.535,1.535,0,0,0,32.73,63.837Zm1.43-8.581h8.376v5.516H34.16Z" transform="translate(31.501 39.164)"/>
      <path id="Path_229" data-name="Path 229" d="M42.53,63.837H94.014a1.4,1.4,0,0,0,1.43-1.43V54.03a1.4,1.4,0,0,0-1.43-1.43H42.53a1.4,1.4,0,0,0-1.43,1.43v8.376A1.535,1.535,0,0,0,42.53,63.837Zm1.43-8.581H92.584v5.516H43.96Z" transform="translate(41.65 39.164)"/>
      <path id="Path_230" data-name="Path 230" d="M72.046,63.837H83.487a1.4,1.4,0,0,0,1.43-1.43V54.03a1.4,1.4,0,0,0-1.43-1.43H72.046a1.4,1.4,0,0,0-1.43,1.43v8.376C70.412,63.019,71.229,63.837,72.046,63.837Zm1.43-8.581h8.376v5.516H73.476Z" transform="translate(72.316 39.164)"/>
      <path id="Path_231" data-name="Path 231" d="M81.83,63.837H93.271a1.4,1.4,0,0,0,1.43-1.43V54.03a1.4,1.4,0,0,0-1.43-1.43H81.83a1.4,1.4,0,0,0-1.43,1.43v8.376A1.535,1.535,0,0,0,81.83,63.837Zm1.43-8.581h8.376v5.516H83.26Z" transform="translate(82.514 39.164)"/>
      <path id="Path_232" data-name="Path 232" d="M91.63,63.837h11.441a1.4,1.4,0,0,0,1.43-1.43V54.03a1.4,1.4,0,0,0-1.43-1.43H91.63a1.4,1.4,0,0,0-1.43,1.43v8.376A1.535,1.535,0,0,0,91.63,63.837Zm1.634-8.581h8.376v5.516H93.265Z" transform="translate(92.696 39.164)"/>
    </g>
  </g>
</svg>
