<svg xmlns="http://www.w3.org/2000/svg" width="176.69" height="165.295" viewBox="0 0 176.69 165.295">
  <g id="computer" transform="translate(0 0)">
    <path id="Path_115" data-name="Path 115" d="M176.019,138.872a3.472,3.472,0,0,0-2.8-1.414h-7.674V41.708a3.469,3.469,0,0,0-3.469-3.469H132.071V3.969A3.469,3.469,0,0,0,128.6.5H50.864A3.468,3.468,0,0,0,47.4,3.969V38.24H14.612a3.469,3.469,0,0,0-3.469,3.469v95.75H3.469a3.468,3.468,0,0,0-3.309,4.5A33.98,33.98,0,0,0,32.592,165.8H144.1a33.98,33.98,0,0,0,32.433-23.833A3.469,3.469,0,0,0,176.019,138.872ZM54.332,7.436h70.8V98.249h-70.8Zm-3.469,97.749h84.993a3.468,3.468,0,1,0,0-6.936h-3.785V56.286h16.178v70.593H28.951V56.286H47.4V98.249h-4.48a3.468,3.468,0,1,0,0,6.936ZM144.1,158.86H32.592A26.915,26.915,0,0,1,8.64,144.394h5.918l.054,0,.054,0H62.888v5.387a3.469,3.469,0,0,0,3.469,3.469h43.98a3.468,3.468,0,0,0,3.467-3.469v-5.387h11.5a3.468,3.468,0,1,0,0-6.936H110.337a3.469,3.469,0,0,0-3.469,3.469v5.387H69.824v-5.387a3.468,3.468,0,0,0-3.467-3.469H18.079V45.175H47.4V49.35H25.484a3.469,3.469,0,0,0-3.469,3.469v77.527a3.469,3.469,0,0,0,3.469,3.469H151.716a3.469,3.469,0,0,0,3.469-3.469V52.819a3.469,3.469,0,0,0-3.469-3.469H132.071V45.175h26.542v92.283h-5.387a3.468,3.468,0,1,0,0,6.936h8.8l.054,0,.053,0h5.919A26.919,26.919,0,0,1,144.1,158.86Zm0,0" transform="translate(-0.001 -0.5)" fill="#383838"/>
    <path id="Path_116" data-name="Path 116" d="M246.232,397.344h-12.7a3.468,3.468,0,0,0,0,6.936h12.7a3.468,3.468,0,1,0,0-6.936Zm0,0" transform="translate(-150.669 -260.393)" fill="#383838"/>
    <path id="Path_117" data-name="Path 117" d="M395.735,397.411l-.156.036a3.468,3.468,0,1,0,1.583,6.754l.155-.036a3.468,3.468,0,0,0-1.581-6.754Zm0,0" transform="translate(-257.312 -260.377)" fill="#383838"/>
    <path id="Path_118" data-name="Path 118" d="M230.187,135.9H177.159a3.468,3.468,0,0,0,0,6.936h53.028a3.468,3.468,0,0,0,0-6.936Zm0,0" transform="translate(-113.751 -89.175)" fill="#383838"/>
    <path id="Path_119" data-name="Path 119" d="M177.159,177.1H201.75a3.468,3.468,0,0,0,0-6.936H177.159a3.468,3.468,0,0,0,0,6.936Zm0,0" transform="translate(-113.751 -111.611)" fill="#383838"/>
    <path id="Path_120" data-name="Path 120" d="M230.187,204.418H177.159a3.468,3.468,0,0,0,0,6.936h53.028a3.468,3.468,0,0,0,0-6.936Zm0,0" transform="translate(-113.751 -134.046)" fill="#383838"/>
    <path id="Path_121" data-name="Path 121" d="M236.023,238.68H203.94a3.468,3.468,0,0,0,0,6.936h32.083a3.468,3.468,0,1,0,0-6.936Zm0,0" transform="translate(-131.29 -156.484)" fill="#383838"/>
    <path id="Path_122" data-name="Path 122" d="M287.853,177.08a3.482,3.482,0,0,0,.8-.094l.156-.036a3.468,3.468,0,1,0-1.6-6.75l-.155.036a3.469,3.469,0,0,0,.794,6.844Zm0,0" transform="translate(-186.246 -111.575)" fill="#383838"/>
    <path id="Path_123" data-name="Path 123" d="M200.046,67.451l5.04,4.985a3.468,3.468,0,0,0,4.877-4.931l-2.439-2.413v-.253l2.437-2.412a3.468,3.468,0,1,0-4.877-4.931l-5.059,5a3.465,3.465,0,0,0,.02,4.951Zm0,0" transform="translate(-130.323 -37.17)" fill="#383838"/>
    <path id="Path_124" data-name="Path 124" d="M289.748,64.841v.253l-2.439,2.412a3.468,3.468,0,0,0,4.877,4.932l5.059-5.005a3.466,3.466,0,0,0-.019-4.95L292.185,57.5a3.468,3.468,0,0,0-4.877,4.932Zm0,0" transform="translate(-187.484 -37.171)" fill="#383838"/>
    <path id="Path_125" data-name="Path 125" d="M240.522,69.343a3.464,3.464,0,0,0,4.585-1.742l8.286-18.455a3.468,3.468,0,1,0-6.326-2.842L238.78,64.759A3.467,3.467,0,0,0,240.522,69.343Zm0,0" transform="translate(-156.178 -29.156)" fill="#383838"/>
  </g>
</svg>
