<svg id="education" xmlns="http://www.w3.org/2000/svg" width="124.617" height="176.69" viewBox="0 0 124.617 176.69">
  <g id="Group_64" data-name="Group 64" transform="translate(21.172 98.698)">
    <g id="Group_63" data-name="Group 63">
      <path id="Path_57" data-name="Path 57" d="M140.249,286a3.451,3.451,0,1,0,3.451,3.451A3.452,3.452,0,0,0,140.249,286Z" transform="translate(-136.798 -286)" fill="#383838"/>
    </g>
  </g>
  <g id="Group_66" data-name="Group 66" transform="translate(21.172 112.502)">
    <g id="Group_65" data-name="Group 65">
      <path id="Path_58" data-name="Path 58" d="M140.249,326a3.451,3.451,0,0,0-3.451,3.451v43.482a3.451,3.451,0,1,0,6.9,0V329.451A3.451,3.451,0,0,0,140.249,326Z" transform="translate(-136.798 -326)" fill="#383838"/>
    </g>
  </g>
  <g id="Group_68" data-name="Group 68" transform="translate(0 0)">
    <g id="Group_67" data-name="Group 67">
      <path id="Path_59" data-name="Path 59" d="M195.8,2.594A3.451,3.451,0,0,0,190.419.666C186.97,3.19,169.625,16.175,166.8,23.934a17.217,17.217,0,0,0,.957,13.939c-4.231,6.069-8.613,14.449-12.47,22.636V3.451A3.451,3.451,0,0,0,151.835,0H124.227a3.451,3.451,0,0,0-3.451,3.451V71.09h-.619l-5.894-22.931-.009-.034-5.359-20v0a3.487,3.487,0,0,0-.111-.34c-.013-.034-.029-.067-.043-.1-.032-.078-.066-.154-.1-.229-.019-.037-.039-.072-.059-.108-.039-.071-.08-.14-.124-.208-.022-.034-.046-.068-.069-.1-.047-.067-.1-.133-.149-.2-.014-.018-.026-.037-.041-.054L87.714,2.657A3.451,3.451,0,0,0,81.7,4.22L75.51,35.493c0,.023-.006.047-.01.069-.016.09-.029.18-.038.271,0,.038-.006.077-.009.115-.005.086-.007.172-.006.258,0,.04,0,.08,0,.12,0,.088.013.175.024.263,0,.036.007.071.013.107a3.478,3.478,0,0,0,.075.361l5.353,19.978,3.591,14.206A10.352,10.352,0,0,0,82.815,91.2v68.233A17.275,17.275,0,0,0,100.07,176.69h69.02a17.275,17.275,0,0,0,17.255-17.255V91.208a10.355,10.355,0,0,0-1.5-19.932,170.233,170.233,0,0,0,4.423-25.368,17.158,17.158,0,0,0,9.965-10.174C202.061,27.961,196.869,6.764,195.8,2.594ZM172.348,43.4a17.285,17.285,0,0,0,9.881,3.676,172.038,172.038,0,0,1-4.456,24.016H158.046C163.316,59.148,168.184,49.726,172.348,43.4ZM127.678,6.9h20.706v7.937h-6.9a3.451,3.451,0,1,0,0,6.9h6.9v6.9h-6.9a3.451,3.451,0,1,0,0,6.9h6.9v6.9h-6.9a3.451,3.451,0,1,0,0,6.9h6.9v6.9h-6.9a3.451,3.451,0,1,0,0,6.9h6.9V71.09H127.678Zm-40.6,5.674,14.158,16.683A16.086,16.086,0,0,1,82.8,34.224ZM83.966,41.755a22.677,22.677,0,0,0,4.652.484,23.107,23.107,0,0,0,5.983-.792,22.865,22.865,0,0,0,9.364-5.055l3.619,13.5,5.448,21.2H91.586L87.6,55.319c0-.016-.008-.032-.012-.047Zm95.477,117.681a10.365,10.365,0,0,1-10.353,10.353H100.07a10.365,10.365,0,0,1-10.353-10.353V91.8h89.726Zm6.9-77.992a3.454,3.454,0,0,1-3.451,3.451H86.266a3.451,3.451,0,0,1,0-6.9h96.628A3.455,3.455,0,0,1,186.345,81.443Zm6.4-48.069a10.352,10.352,0,0,1-18.059,2.608v0a10.342,10.342,0,0,1-1.4-9.686c1.293-3.552,9.711-11.125,17.038-16.886C192.338,18.566,194.035,29.829,192.744,33.374Z" transform="translate(-75.447 0)" fill="#383838"/>
    </g>
  </g>
</svg>
