<svg xmlns="http://www.w3.org/2000/svg" width="260" height="235.182" viewBox="0 0 260 235.182">
  <g id="noun_design_749949" transform="translate(55.054 -48.5)">
    <g id="Group_71" data-name="Group 71" transform="translate(-55.054 48.5)">
      <path id="Path_126" data-name="Path 126" d="M75.94,27.267a43.19,43.19,0,0,1,12.542,8.361,38.473,38.473,0,0,1,8.361,12.542A39.691,39.691,0,0,1,99.829,63.5a1.593,1.593,0,0,0,3.185,0A41.317,41.317,0,0,0,99.63,47.174a43.656,43.656,0,0,0-8.958-13.338,40.366,40.366,0,0,0-13.338-8.958,1.454,1.454,0,0,0-1.991.8C74.746,26.072,75.144,26.868,75.94,27.267Z" transform="translate(78.119 12.794)"/>
      <path id="Path_127" data-name="Path 127" d="M73.575,27.465a1.516,1.516,0,1,0-1.194-2.787,43.656,43.656,0,0,0-13.338,8.958,40.366,40.366,0,0,0-8.958,13.338A42.053,42.053,0,0,0,46.7,63.3a1.57,1.57,0,0,0,1.593,1.593A1.465,1.465,0,0,0,49.885,63.3a40.425,40.425,0,0,1,2.986-15.329,43.19,43.19,0,0,1,8.361-12.542A41.182,41.182,0,0,1,73.575,27.465Z" transform="translate(48.236 12.582)"/>
      <path id="Path_128" data-name="Path 128" d="M176.421,75.9a1.594,1.594,0,0,0,1.593-1.642V61.733a1.6,1.6,0,0,0-1.593-1.642H164.278a1.594,1.594,0,0,0-1.593,1.642V74.256a1.6,1.6,0,0,0,1.593,1.642h4.38c-1.593,27.1-19.111,50.5-44.194,58.92l-1-12.728c19.907-8.007,33.444-28.126,33.444-50.3,0-29.768-23.491-53.993-52.356-53.993S52.2,42.025,52.2,71.793c0,22.172,13.338,42.291,33.444,50.3l-1,12.728C59.566,126.4,42.047,103,40.455,75.9h3.981a1.594,1.594,0,0,0,1.593-1.642V61.733a1.6,1.6,0,0,0-1.593-1.642H32.293A1.594,1.594,0,0,0,30.7,61.733V74.256A1.6,1.6,0,0,0,32.293,75.9h4.977c1.593,28.741,20.305,53.377,46.981,62l-4.579,60.562H75.093A5.438,5.438,0,0,0,69.718,204v1.642a5.438,5.438,0,0,0,5.375,5.543h2.19a5.6,5.6,0,0,0-.6,2.464v1.642a5.6,5.6,0,0,0,.6,2.464h-2.19a5.438,5.438,0,0,0-5.375,5.543v1.642a5.438,5.438,0,0,0,5.375,5.543h58.527A5.438,5.438,0,0,0,139,224.944v-1.437a5.438,5.438,0,0,0-5.375-5.543h-2.19a5.6,5.6,0,0,0,.6-2.464v-1.642a5.6,5.6,0,0,0-.6-2.464h2.389a5.438,5.438,0,0,0,5.375-5.543v-1.642a5.438,5.438,0,0,0-5.375-5.543h-4.579l-4.38-60.562c26.676-8.622,45.389-33.258,46.981-62h4.579ZM33.885,72.819V63.376h9.157v9.444Zm21.3-1.026c0-28.126,22.1-50.913,49.37-50.913s49.37,22.788,49.37,50.913c0,20.735-12.143,39.417-30.657,47.013l-.4-6.569h1.394a4.918,4.918,0,0,0,3.583-1.642,5.215,5.215,0,0,0,1.593-3.7,5.355,5.355,0,0,0-5.176-5.338H123.07l10.551-19.914a1.8,1.8,0,0,0,0-1.437c0-.205-.2-.205-.2-.411a133.994,133.994,0,0,1-27.472-47.218h0v-.205c0-.205-.2-.205-.2-.411l-.2-.205a.689.689,0,0,0-.4-.205h-.2c-.2,0-.4-.205-.6-.205a.717.717,0,0,0-.6.205h-.2c-.2,0-.2.205-.4.205l-.2.205a.724.724,0,0,0-.2.411v.205h0A139.326,139.326,0,0,1,75.491,80l-.4.411a1.8,1.8,0,0,0,0,1.437l10.551,19.914H84.45a4.918,4.918,0,0,0-3.583,1.642,5.215,5.215,0,0,0-1.593,3.7,5.355,5.355,0,0,0,5.176,5.338h1.394l-.4,6.569C67.329,111.21,55.186,92.528,55.186,71.793Zm47.977-7.6a7.845,7.845,0,0,0-5.972,7.6,7.567,7.567,0,1,0,9.157-7.6V41.409a140.686,140.686,0,0,0,24.486,40.033l-10.949,20.324H89.426L78.477,81.442a140.686,140.686,0,0,0,24.486-40.033V64.2Zm1.394,2.874a4.724,4.724,0,1,1-4.579,4.722A4.847,4.847,0,0,1,104.556,67.071ZM88.63,104.846h35.833a2.245,2.245,0,0,1,2.19,2.258,2.373,2.373,0,0,1-.6,1.642,2.222,2.222,0,0,1-1.593.616H85.047a2.245,2.245,0,0,1-2.19-2.258,2.373,2.373,0,0,1,.6-1.642,2.222,2.222,0,0,1,1.593-.616Zm45.189,116.2a2.337,2.337,0,0,1,2.389,2.464v1.642a2.337,2.337,0,0,1-2.389,2.464H75.292a2.337,2.337,0,0,1-2.389-2.464v-1.642a2.337,2.337,0,0,1,2.389-2.464H133.82ZM80.07,215.5v-1.642a2.337,2.337,0,0,1,2.389-2.464h44.393a2.337,2.337,0,0,1,2.389,2.464V215.5a2.337,2.337,0,0,1-2.389,2.464H82.459A2.606,2.606,0,0,1,80.07,215.5Zm53.75-13.755a2.337,2.337,0,0,1,2.389,2.464v1.642a2.337,2.337,0,0,1-2.389,2.464H75.292a2.337,2.337,0,0,1-2.389-2.464v-1.642a2.337,2.337,0,0,1,2.389-2.464H133.82Zm-7.565-3.285h-43.4l6.37-86.224h30.458ZM165.87,72.819V63.376h9.157v9.444Z" transform="translate(33.533 4.695)"/>
      <path id="Path_129" data-name="Path 129" d="M27.244,21.63a7.684,7.684,0,0,0,7.431-5.773h73.076c0,.2-.206.4,0,.6a1.5,1.5,0,0,0,1.445,1.194h.206c.619,0,1.239-.2,2.064-.2h.206v2.588a1.6,1.6,0,0,0,1.651,1.593h12.592a1.6,1.6,0,0,0,1.651-1.593V17.449c.619,0,1.239.2,1.858.2h.206a1.364,1.364,0,0,0,1.445-1.194v-.6H204.36a7.309,7.309,0,0,0,7.431,5.773,7.489,7.489,0,0,0,7.638-7.366A7.487,7.487,0,0,0,211.792,6.9a7.684,7.684,0,0,0-7.431,5.773h-77.2V8.093A1.6,1.6,0,0,0,125.5,6.5H112.912a1.6,1.6,0,0,0-1.651,1.593V12.87H34.469A7.309,7.309,0,0,0,27.038,7.1,7.489,7.489,0,0,0,19.4,14.463,7.644,7.644,0,0,0,27.244,21.63ZM211.792,10.083a4.5,4.5,0,0,1,4.541,4.38,4.544,4.544,0,0,1-9.083,0A4.5,4.5,0,0,1,211.792,10.083Zm-97.228-.4h9.5v9.157h-9.5Zm-87.319.4a4.5,4.5,0,0,1,4.541,4.38,4.544,4.544,0,0,1-9.083,0A4.5,4.5,0,0,1,27.244,10.083Z" transform="translate(18.274 -6.5)"/>
      <path id="Path_130" data-name="Path 130" d="M25.472,110.2a5.972,5.972,0,1,0,5.972,5.972A5.75,5.75,0,0,0,25.472,110.2Zm0,8.958a2.986,2.986,0,1,1,2.986-2.986A2.932,2.932,0,0,1,25.472,119.158Z" transform="translate(18.374 102.686)"/>
      <path id="Path_131" data-name="Path 131" d="M121.675,97.6a5.375,5.375,0,1,0,5.375,5.375A5.483,5.483,0,0,0,121.675,97.6Zm0,7.963a2.389,2.389,0,1,1,2.389-2.389A2.569,2.569,0,0,1,121.675,105.563Z" transform="translate(121.404 89.119)"/>
      <path id="Path_132" data-name="Path 132" d="M132.64,105.435V81.347h2.389a5.777,5.777,0,0,0,5.773-5.773,5.558,5.558,0,0,0-1.593-3.981A5.919,5.919,0,0,0,135.228,70h-21.1a5.777,5.777,0,0,0-5.773,5.773,5.012,5.012,0,0,0,1.792,3.981,5.919,5.919,0,0,0,3.981,1.593h2.389v24.088A25.934,25.934,0,0,0,99.793,121.56a28.569,28.569,0,0,0-1.593,9.157,26.477,26.477,0,1,0,52.953,0,28.569,28.569,0,0,0-1.593-9.157A26.685,26.685,0,0,0,132.64,105.435ZM113.927,78.361a2.721,2.721,0,0,1-2.787-2.787,2.721,2.721,0,0,1,2.787-2.787h21.1a2.721,2.721,0,0,1,2.787,2.787,2.721,2.721,0,0,1-2.787,2.787h-21.1Zm10.551,75.847a23.534,23.534,0,0,1-23.491-23.491,22.713,22.713,0,0,1,1.394-8.162,23.317,23.317,0,0,1,15.926-14.532,1.708,1.708,0,0,0,1.194-1.394V81.347h10.352V106.43a1.454,1.454,0,0,0,1.194,1.393,23.719,23.719,0,0,1,15.926,14.532h0a22.713,22.713,0,0,1,1.393,8.162A23.917,23.917,0,0,1,124.478,154.208Z" transform="translate(103.472 62.859)"/>
      <path id="Path_133" data-name="Path 133" d="M117.677,104.8a4.977,4.977,0,1,0,4.977,4.977A4.928,4.928,0,0,0,117.677,104.8Zm0,6.968a2,2,0,0,1-1.991-1.991,2.141,2.141,0,0,1,1.991-1.991,2,2,0,0,1,1.991,1.991A1.881,1.881,0,0,1,117.677,111.768Z" transform="translate(117.837 97.336)"/>
      <path id="Path_134" data-name="Path 134" d="M108.912,92.279c-5.773,3.583-11.148,14.93-5.972,26.477a1.333,1.333,0,0,0,1.393.8.731.731,0,0,0,.6-.2,1.454,1.454,0,0,0,.8-1.991c-4.38-9.954,0-19.907,4.778-22.893a1.241,1.241,0,0,0,.4-1.991A1.33,1.33,0,0,0,108.912,92.279Z" transform="translate(104.844 84.574)"/>
      <path id="Path_135" data-name="Path 135" d="M12.485,41.893a1.593,1.593,0,0,0-3.185,0V61a1.593,1.593,0,1,0,3.185,0Z" transform="translate(8.268 29.088)"/>
      <path id="Path_136" data-name="Path 136" d="M10.893,53.1A1.57,1.57,0,0,0,9.3,54.693v6.171a1.593,1.593,0,0,0,3.185,0V54.693A1.713,1.713,0,0,0,10.893,53.1Z" transform="translate(8.268 42.394)"/>
      <path id="Path_137" data-name="Path 137" d="M127.493,66.3a1.57,1.57,0,0,0-1.593,1.593V87a1.593,1.593,0,0,0,3.185,0V67.694A1.42,1.42,0,0,0,127.493,66.3Z" transform="translate(130.915 56.464)"/>
      <path id="Path_138" data-name="Path 138" d="M127.493,79.1a1.57,1.57,0,0,0-1.593,1.593v6.171a1.593,1.593,0,0,0,3.185,0V80.693A1.465,1.465,0,0,0,127.493,79.1Z" transform="translate(130.915 69.674)"/>
      <path id="Path_139" data-name="Path 139" d="M115.1,28.009l-2.986-2.986a1.548,1.548,0,0,0-2.19,2.19l2.986,2.986a1.443,1.443,0,0,0,1.991,0A1.42,1.42,0,0,0,115.1,28.009Z" transform="translate(114.642 11.407)"/>
      <path id="Path_140" data-name="Path 140" d="M117.013,29.923a1.548,1.548,0,1,0-2.19,2.19l2.986,2.986a1.443,1.443,0,0,0,1.991,0,1.562,1.562,0,0,0,0-2.19Z" transform="translate(119.497 17.586)"/>
      <path id="Path_141" data-name="Path 141" d="M112.909,29.923l-2.986,2.986a1.562,1.562,0,0,0,0,2.19,1.443,1.443,0,0,0,1.991,0l2.986-2.986a1.562,1.562,0,0,0,0-2.19A1.326,1.326,0,0,0,112.909,29.923Z" transform="translate(114.642 17.586)"/>
      <path id="Path_142" data-name="Path 142" d="M114.823,28.009a1.562,1.562,0,0,0,0,2.19,1.443,1.443,0,0,0,1.991,0l2.986-2.986a1.548,1.548,0,1,0-2.19-2.19Z" transform="translate(119.497 11.407)"/>
      <path id="Path_143" data-name="Path 143" d="M90.113,78.123a1.548,1.548,0,0,0-2.19,2.19L90.909,83.3a1.443,1.443,0,0,0,1.991,0,1.562,1.562,0,0,0,0-2.19Z" transform="translate(90.716 68.117)"/>
      <path id="Path_144" data-name="Path 144" d="M95.013,83.023a1.548,1.548,0,0,0-2.19,2.19L95.809,88.2a1.443,1.443,0,0,0,1.991,0,1.562,1.562,0,0,0,0-2.19Z" transform="translate(95.852 73.254)"/>
      <path id="Path_145" data-name="Path 145" d="M90.909,83.023l-2.986,2.986a1.562,1.562,0,0,0,0,2.19,1.443,1.443,0,0,0,1.991,0L92.9,85.213a1.562,1.562,0,0,0,0-2.19A1.326,1.326,0,0,0,90.909,83.023Z" transform="translate(90.716 73.254)"/>
      <path id="Path_146" data-name="Path 146" d="M95.809,78.123l-2.986,2.986a1.562,1.562,0,0,0,0,2.19,1.443,1.443,0,0,0,1.991,0L97.8,80.313a1.562,1.562,0,0,0,0-2.19A1.326,1.326,0,0,0,95.809,78.123Z" transform="translate(95.852 68.117)"/>
      <path id="Path_147" data-name="Path 147" d="M3.113,98.823a1.548,1.548,0,1,0-2.19,2.19L3.909,104a1.521,1.521,0,0,0,1,.4,1.521,1.521,0,0,0,1-.4,1.562,1.562,0,0,0,0-2.19Z" transform="translate(-0.475 89.818)"/>
      <path id="Path_148" data-name="Path 148" d="M8.013,103.723a1.548,1.548,0,0,0-2.19,2.19L8.809,108.9a1.443,1.443,0,0,0,1.991,0,1.562,1.562,0,0,0,0-2.19Z" transform="translate(4.38 95.825)"/>
      <path id="Path_149" data-name="Path 149" d="M3.909,103.723.923,106.709a1.562,1.562,0,0,0,0,2.19,1.521,1.521,0,0,0,1,.4,1.521,1.521,0,0,0,1-.4L5.9,105.913a1.562,1.562,0,0,0,0-2.19A1.326,1.326,0,0,0,3.909,103.723Z" transform="translate(-0.475 95.825)"/>
      <path id="Path_150" data-name="Path 150" d="M8.909,98.823l-2.986,2.986a1.562,1.562,0,0,0,0,2.19,1.443,1.443,0,0,0,1.991,0l2.986-2.986a1.562,1.562,0,0,0,0-2.19A1.326,1.326,0,0,0,8.909,98.823Z" transform="translate(4.479 89.818)"/>
      <path id="Path_151" data-name="Path 151" d="M124.571,63.333a7.167,7.167,0,1,0-7.167-7.167A7.014,7.014,0,0,0,124.571,63.333Zm0-11.546a4.181,4.181,0,1,1-4.181,4.181A4.079,4.079,0,0,1,124.571,51.787Z" transform="translate(122.49 38.15)"/>
      <path id="Path_152" data-name="Path 152" d="M20.933,89.767a7.167,7.167,0,1,0-7.167,7.167A7.266,7.266,0,0,0,20.933,89.767Zm-7.366,4.181a4.181,4.181,0,1,1,4.181-4.181A4.082,4.082,0,0,1,13.568,93.947Z" transform="translate(5.593 73.45)"/>
      <path id="Path_153" data-name="Path 153" d="M27.39,24.293A1.57,1.57,0,0,0,25.8,22.7H5.293a1.593,1.593,0,1,0,0,3.185H26A1.538,1.538,0,0,0,27.39,24.293Z" transform="translate(2.72 9.55)"/>
      <path id="Path_154" data-name="Path 154" d="M19.093,25.885h6.768a1.593,1.593,0,0,0,0-3.185H19.093A1.57,1.57,0,0,0,17.5,24.293C17.7,25.089,18.3,25.885,19.093,25.885Z" transform="translate(16.392 9.55)"/>
      <path id="Path_155" data-name="Path 155" d="M29.725,26.3H15.193a1.593,1.593,0,1,0,0,3.185H29.725a1.57,1.57,0,0,0,1.593-1.593C31.118,27.1,30.521,26.3,29.725,26.3Z" transform="translate(12.528 13.116)"/>
      <path id="Path_156" data-name="Path 156" d="M16.063,27.893A1.57,1.57,0,0,0,14.47,26.3H9.693a1.593,1.593,0,1,0,0,3.185H14.47C15.267,29.286,16.063,28.689,16.063,27.893Z" transform="translate(7.079 13.116)"/>
      <path id="Path_157" data-name="Path 157" d="M54.293,123.559V82.749a5.555,5.555,0,0,0,4.181-5.375,5.919,5.919,0,0,0-1.593-3.981A5.558,5.558,0,0,0,52.9,71.8H32.594a5.7,5.7,0,0,0-5.574,5.574,5.558,5.558,0,0,0,1.593,3.981A4.756,4.756,0,0,0,31.2,82.749V123.36h0L12.886,159.79a4.934,4.934,0,0,0,.2,4.977,5,5,0,0,0,4.38,2.389H67.83a5.471,5.471,0,0,0,4.38-2.389,4.954,4.954,0,0,0,.2-4.977ZM30.8,79.166a2.965,2.965,0,0,1-.8-1.792,2.635,2.635,0,0,1,2.588-2.588H52.9a2.161,2.161,0,0,1,1.792.8,2.965,2.965,0,0,1,.8,1.792A2.682,2.682,0,0,1,52.7,79.962a1.57,1.57,0,0,0-1.593,1.593v41.009H34.187V81.355a1.713,1.713,0,0,0-1.593-1.593A1.605,1.605,0,0,1,30.8,79.166Zm38.819,84.009a2.091,2.091,0,0,1-1.792,1H17.465a2.091,2.091,0,0,1-1.792-1,2.149,2.149,0,0,1,0-2.19l17.917-35.634H51.9l17.917,35.634A2.136,2.136,0,0,1,69.622,163.174Z" transform="translate(11.252 64.642)"/>
      <path id="Path_158" data-name="Path 158" d="M100.051,30.154a34.627,34.627,0,0,0-2.19-3.583,1.436,1.436,0,1,0-2.389,1.593,29.97,29.97,0,0,1,1.991,3.384,1.333,1.333,0,0,0,1.393.8,1.5,1.5,0,0,0,.8-.2A1.668,1.668,0,0,0,100.051,30.154Z" transform="translate(98.718 12.646)"/>
      <path id="Path_159" data-name="Path 159" d="M99.071,36.152a1.5,1.5,0,0,0,1.393,1h.6a1.643,1.643,0,0,0,1-1.991,21.572,21.572,0,0,0-1.593-3.782,1.516,1.516,0,0,0-2.787,1.194A26.587,26.587,0,0,0,99.071,36.152Z" transform="translate(101.218 18.583)"/>
      <path id="Path_160" data-name="Path 160" d="M92.523,22.223a1.326,1.326,0,0,0,0,1.991c.8,1,1.792,1.991,2.588,3.185a1.419,1.419,0,0,0,1.194.6c.4,0,.6-.2,1-.4a1.56,1.56,0,0,0,.2-2.19c-.8-1.194-1.792-2.19-2.588-3.185A1.817,1.817,0,0,0,92.523,22.223Z" transform="translate(95.536 8.633)"/>
      <path id="Path_161" data-name="Path 161" d="M88.779,18.637a1.577,1.577,0,0,0,.2,2.19c1,.8,1.991,1.792,2.986,2.588a1.443,1.443,0,0,0,1.991,0,1.562,1.562,0,0,0,0-2.19,21.309,21.309,0,0,0-3.185-2.787A1.544,1.544,0,0,0,88.779,18.637Z" transform="translate(91.708 5.052)"/>
      <path id="Path_162" data-name="Path 162" d="M84.5,15.8a1.5,1.5,0,0,0,.4,1.991,32.424,32.424,0,0,1,3.384,2.19,1.2,1.2,0,0,0,.8.2,1.419,1.419,0,0,0,1.194-.6,1.362,1.362,0,0,0-.4-1.991c-1.194-.8-2.389-1.593-3.384-2.19A1.544,1.544,0,0,0,84.5,15.8Z" transform="translate(87.391 2.115)"/>
      <path id="Path_163" data-name="Path 163" d="M81.868,12.978a1.516,1.516,0,1,0-1.194,2.787c1.194.6,2.389,1,3.583,1.593a.731.731,0,0,0,.6.2,2.015,2.015,0,0,0,1.394-.8,1.548,1.548,0,0,0-.6-1.991C84.456,14.172,83.063,13.575,81.868,12.978Z" transform="translate(82.604 -0.237)"/>
      <path id="Path_164" data-name="Path 164" d="M76.711,11.325a1.412,1.412,0,0,0-1.792,1.194,1.55,1.55,0,0,0,1.194,1.792c1.393.4,2.588.6,3.782,1h.4a1.5,1.5,0,0,0,1.393-1,1.424,1.424,0,0,0-1-1.792A13.213,13.213,0,0,0,76.711,11.325Z" transform="translate(77.532 -1.769)"/>
      <path id="Path_165" data-name="Path 165" d="M99.54,39.009a1.454,1.454,0,0,0,1.394,1.194h.4a1.55,1.55,0,0,0,1.194-1.792,7.073,7.073,0,0,1-.4-1.991,1.449,1.449,0,0,0-2.787.8C99.142,37.615,99.341,38.212,99.54,39.009Z" transform="translate(103.009 23.762)"/>
      <path id="Path_166" data-name="Path 166" d="M37.109,35.325a1.424,1.424,0,0,0-1.792,1,7.073,7.073,0,0,0-.4,1.991A1.55,1.55,0,0,0,36.114,40.1h.4a1.316,1.316,0,0,0,1.394-1.194c.2-.6.2-1.194.4-1.991A1.668,1.668,0,0,0,37.109,35.325Z" transform="translate(35.569 23.657)"/>
      <path id="Path_167" data-name="Path 167" d="M56.979,13.078c-1.194.6-2.588,1.194-3.782,1.792a1.38,1.38,0,0,0-.6,1.991,1.333,1.333,0,0,0,1.394.8.731.731,0,0,0,.6-.2,28.2,28.2,0,0,1,3.583-1.593,1.454,1.454,0,0,0,.8-1.991A1.4,1.4,0,0,0,56.979,13.078Z" transform="translate(53.962 -0.138)"/>
      <path id="Path_168" data-name="Path 168" d="M39.294,32.374a1.5,1.5,0,0,0,1.394-.8c.6-1.194,1.394-2.389,1.991-3.384A1.436,1.436,0,1,0,40.29,26.6,32.207,32.207,0,0,0,38.3,30.185a1.38,1.38,0,0,0,.6,1.991A.7.7,0,0,0,39.294,32.374Z" transform="translate(38.953 12.815)"/>
      <path id="Path_169" data-name="Path 169" d="M62.2,11.319c-1.394.4-2.588.8-3.981,1.194a1.424,1.424,0,0,0-1,1.792,1.5,1.5,0,0,0,1.394,1h.4a26.521,26.521,0,0,1,3.782-1,1.523,1.523,0,1,0-.6-2.986Z" transform="translate(58.969 -1.764)"/>
      <path id="Path_170" data-name="Path 170" d="M47.609,18.579a38.218,38.218,0,0,0-2.986,2.787,1.562,1.562,0,0,0,0,2.19c.2.4.6.4,1,.4a1.521,1.521,0,0,0,1-.4A34.6,34.6,0,0,1,49.6,20.968a1.56,1.56,0,0,0,.2-2.19A1.577,1.577,0,0,0,47.609,18.579Z" transform="translate(45.331 5.11)"/>
      <path id="Path_171" data-name="Path 171" d="M52.085,15.4c-1.194.8-2.389,1.394-3.384,2.19a1.544,1.544,0,0,0-.4,1.991,1.419,1.419,0,0,0,1.194.6,1.2,1.2,0,0,0,.8-.2c1-.8,2.19-1.394,3.384-2.19a1.241,1.241,0,0,0,.4-1.991A1.5,1.5,0,0,0,52.085,15.4Z" transform="translate(49.445 2.115)"/>
      <path id="Path_172" data-name="Path 172" d="M38.911,36.251c.4-1.194,1-2.389,1.394-3.782a1.516,1.516,0,0,0-2.787-1.194c-.6,1.194-1,2.588-1.593,3.782a1.745,1.745,0,0,0,1,1.991h.6A1.132,1.132,0,0,0,38.911,36.251Z" transform="translate(36.619 18.478)"/>
      <path id="Path_173" data-name="Path 173" d="M43.667,22.4a36.346,36.346,0,0,0-2.588,3.185,1.577,1.577,0,0,0,.2,2.19,1.521,1.521,0,0,0,1,.4,1.419,1.419,0,0,0,1.194-.6,34.6,34.6,0,0,1,2.588-2.986,1.577,1.577,0,0,0-.2-2.19A1.3,1.3,0,0,0,43.667,22.4Z" transform="translate(41.706 8.658)"/>
      <path id="Path_174" data-name="Path 174" d="M33.323,104.232a1.516,1.516,0,1,0-2.787,1.194L38.7,122.348a1.333,1.333,0,0,0,1.394.8.731.731,0,0,0,.6-.2,1.63,1.63,0,0,0,.8-1.991Z" transform="translate(30.996 95.913)"/>
    </g>
  </g>
</svg>
