<svg xmlns="http://www.w3.org/2000/svg" width="258.996" height="241.744" viewBox="0 0 258.996 241.744">
  <g id="noun_Mobile_749867" transform="translate(-1.004 -3.8)">
    <g id="Group_74" data-name="Group 74" transform="translate(1.004 3.8)">
      <path id="Path_283" data-name="Path 283" d="M127.506,73.7a1.372,1.372,0,0,0-1.405,1.405V97.393a1.405,1.405,0,1,0,2.811,0V75.306A1.552,1.552,0,0,0,127.506,73.7Z" transform="translate(130.085 66.648)"/>
      <path id="Path_284" data-name="Path 284" d="M127.506,88.4a1.372,1.372,0,0,0-1.405,1.405v7.228a1.405,1.405,0,1,0,2.811,0V89.805A1.509,1.509,0,0,0,127.506,88.4Z" transform="translate(130.085 81.464)"/>
      <path id="Path_285" data-name="Path 285" d="M79.439,11.546a1.3,1.3,0,0,0,1,.4,1.534,1.534,0,0,0,1-.4,1.337,1.337,0,0,0,0-2.008L78.435,6.527a1.337,1.337,0,0,0-2.008,0,1.337,1.337,0,0,0,0,2.008Z" transform="translate(78.001 -1.507)"/>
      <path id="Path_286" data-name="Path 286" d="M84.339,16.446a1.456,1.456,0,0,0,2.008,0,1.337,1.337,0,0,0,0-2.008l-3.012-3.012a1.42,1.42,0,0,0-2.008,2.008Z" transform="translate(83.097 3.431)"/>
      <path id="Path_287" data-name="Path 287" d="M77.431,16.812a1.534,1.534,0,0,0,1-.4L81.446,13.4a1.337,1.337,0,0,0,0-2.008c-.6-.4-1.606-.6-2.008,0L76.427,14.4a1.337,1.337,0,0,0,0,2.008A3.392,3.392,0,0,0,77.431,16.812Z" transform="translate(78.001 3.467)"/>
      <path id="Path_288" data-name="Path 288" d="M82.331,11.948c.4,0,.8,0,1-.4l3.012-3.012a1.337,1.337,0,0,0,0-2.008,1.337,1.337,0,0,0-2.008,0L81.327,9.539a1.337,1.337,0,0,0,0,2.008C81.528,11.948,81.929,11.948,82.331,11.948Z" transform="translate(83.097 -1.507)"/>
      <path id="Path_289" data-name="Path 289" d="M113.828,25.356a7.228,7.228,0,1,0-7.228-7.228A7.2,7.2,0,0,0,113.828,25.356Zm0-11.244a4.117,4.117,0,0,1,4.216,4.216,4.216,4.216,0,1,1-8.433,0A4.117,4.117,0,0,1,113.828,14.113Z" transform="translate(110.432 3.356)"/>
      <path id="Path_290" data-name="Path 290" d="M11.035,116.427a1.337,1.337,0,0,0-2.008,0,1.337,1.337,0,0,0,0,2.008l3.012,3.012a1.456,1.456,0,0,0,2.008,0,1.337,1.337,0,0,0,0-2.008Z" transform="translate(7.638 109.255)"/>
      <path id="Path_291" data-name="Path 291" d="M15.735,121.127a1.42,1.42,0,1,0-2.008,2.008l3.012,3.012a1.456,1.456,0,0,0,2.008,0,1.337,1.337,0,0,0,0-2.008Z" transform="translate(12.375 113.992)"/>
      <path id="Path_292" data-name="Path 292" d="M11.939,121.051l-3.012,3.012a1.337,1.337,0,0,0,0,2.008,1.456,1.456,0,0,0,2.008,0l3.012-3.012a1.337,1.337,0,0,0,0-2.008A1.816,1.816,0,0,0,11.939,121.051Z" transform="translate(7.538 114.067)"/>
      <path id="Path_293" data-name="Path 293" d="M16.739,116.427l-3.012,3.012a1.337,1.337,0,0,0,0,2.008,1.456,1.456,0,0,0,2.008,0l3.012-3.012a1.42,1.42,0,0,0-2.008-2.008Z" transform="translate(12.375 109.255)"/>
      <path id="Path_294" data-name="Path 294" d="M8.911,39.805a1.405,1.405,0,1,0-2.811,0V58.88a1.405,1.405,0,1,0,2.811,0Z" transform="translate(5.144 31.071)"/>
      <path id="Path_295" data-name="Path 295" d="M7.505,52.4A1.372,1.372,0,0,0,6.1,53.805v6.827a1.405,1.405,0,0,0,2.811,0V53.805A1.372,1.372,0,0,0,7.505,52.4Z" transform="translate(5.144 45.181)"/>
      <path id="Path_296" data-name="Path 296" d="M7.728,80a7.228,7.228,0,1,0,7.228,7.228A7.075,7.075,0,0,0,7.728,80Zm0,11.646a4.417,4.417,0,1,1,0-8.835,4.417,4.417,0,1,1,0,8.835Z" transform="translate(-0.5 72.998)"/>
      <path id="Path_297" data-name="Path 297" d="M9.9,9.321a1.372,1.372,0,0,0,1.405,1.405H35.2a1.405,1.405,0,1,0,0-2.811H11.506A1.423,1.423,0,0,0,9.9,9.321Z" transform="translate(8.974 0.316)"/>
      <path id="Path_298" data-name="Path 298" d="M3.605,10.711h7.63a1.405,1.405,0,1,0,0-2.811H3.605a1.405,1.405,0,1,0,0,2.811Z" transform="translate(1.213 0.332)"/>
      <path id="Path_299" data-name="Path 299" d="M3.605,6.611H20.271a1.372,1.372,0,0,0,1.405-1.405A1.372,1.372,0,0,0,20.271,3.8H3.605A1.372,1.372,0,0,0,2.2,5.205,1.372,1.372,0,0,0,3.605,6.611Z" transform="translate(1.213 -3.8)"/>
      <path id="Path_300" data-name="Path 300" d="M15.525,6.611h5.421a1.372,1.372,0,0,0,1.405-1.405A1.372,1.372,0,0,0,20.946,3.8H15.525a1.372,1.372,0,0,0-1.405,1.405C13.919,6.009,14.521,6.611,15.525,6.611Z" transform="translate(13.187 -3.8)"/>
      <path id="Path_301" data-name="Path 301" d="M114.2,120.105A1.372,1.372,0,0,0,112.8,118.7H88.905a1.405,1.405,0,1,0,0,2.811H112.6A1.423,1.423,0,0,0,114.2,120.105Z" transform="translate(90.243 112.001)"/>
      <path id="Path_302" data-name="Path 302" d="M112.335,121.611a1.405,1.405,0,0,0,0-2.811h-7.63a1.405,1.405,0,1,0,0,2.811Z" transform="translate(107.106 112.102)"/>
      <path id="Path_303" data-name="Path 303" d="M116.871,122.8H100.206a1.405,1.405,0,1,0,0,2.811h16.665a1.405,1.405,0,0,0,0-2.811Z" transform="translate(102.571 116.133)"/>
      <path id="Path_304" data-name="Path 304" d="M99.327,122.8H93.906a1.405,1.405,0,0,0,0,2.811h5.421a1.372,1.372,0,0,0,1.405-1.405C100.933,123.4,100.13,122.8,99.327,122.8Z" transform="translate(95.216 116.133)"/>
      <path id="Path_305" data-name="Path 305" d="M35.505,23.911H64.418a1.405,1.405,0,1,0,0-2.811H35.505a1.405,1.405,0,0,0,0,2.811Z" transform="translate(34.572 13.636)"/>
      <path id="Path_306" data-name="Path 306" d="M45.527,102.8a7.027,7.027,0,1,0,7.027,7.027A7.114,7.114,0,0,0,45.527,102.8Zm0,11.043a4.016,4.016,0,1,1,4.016-4.016A4.027,4.027,0,0,1,45.527,113.843Z" transform="translate(39.065 95.976)"/>
      <path id="Path_307" data-name="Path 307" d="M60.5,83.8H36.805a1.405,1.405,0,1,0,0,2.811H60.3A1.372,1.372,0,0,0,61.7,85.205,1.13,1.13,0,0,0,60.5,83.8Z" transform="translate(35.9 76.827)"/>
      <path id="Path_308" data-name="Path 308" d="M60.5,87.3H36.805a1.405,1.405,0,1,0,0,2.811H60.3A1.372,1.372,0,0,0,61.7,88.705C61.7,87.9,61.3,87.3,60.5,87.3Z" transform="translate(35.899 80.355)"/>
      <path id="Path_309" data-name="Path 309" d="M60.5,90.8H36.805a1.405,1.405,0,1,0,0,2.811H60.3A1.372,1.372,0,0,0,61.7,92.205C61.7,91.4,61.3,90.8,60.5,90.8Z" transform="translate(35.899 83.882)"/>
      <path id="Path_310" data-name="Path 310" d="M44.1,33.9H20.605A1.372,1.372,0,0,0,19.2,35.306V52.171a1.372,1.372,0,0,0,1.405,1.405H44.1A1.372,1.372,0,0,0,45.5,52.171V35.305C45.7,34.7,44.9,33.9,44.1,33.9ZM42.692,50.766H22.011V36.912H42.692V50.766Z" transform="translate(18.347 26.536)"/>
      <path id="Path_311" data-name="Path 311" d="M60.5,33.9H36.805A1.372,1.372,0,0,0,35.4,35.306V52.171a1.372,1.372,0,0,0,1.405,1.405H60.3A1.372,1.372,0,0,0,61.7,52.171V35.305A1.2,1.2,0,0,0,60.5,33.9ZM58.892,50.766H38.412V36.912H59.093V50.766Z" transform="translate(35.9 26.536)"/>
      <path id="Path_312" data-name="Path 312" d="M76.6,33.9H53.105A1.372,1.372,0,0,0,51.7,35.306V52.171a1.372,1.372,0,0,0,1.405,1.405H76.6A1.372,1.372,0,0,0,78,52.171V35.305C78.2,34.7,77.4,33.9,76.6,33.9ZM75.192,50.766H54.511V36.912H75.192V50.766Z" transform="translate(52.9 26.536)"/>
      <path id="Path_313" data-name="Path 313" d="M44.1,47.1H20.605A1.372,1.372,0,0,0,19.2,48.505V65.371a1.372,1.372,0,0,0,1.405,1.406H44.1A1.372,1.372,0,0,0,45.5,65.371V48.505C45.7,47.7,44.9,47.1,44.1,47.1ZM42.692,63.765H22.011V49.911H42.692V63.765Z" transform="translate(18.347 39.84)"/>
      <path id="Path_314" data-name="Path 314" d="M60.5,47.1H36.805A1.372,1.372,0,0,0,35.4,48.505V65.371a1.372,1.372,0,0,0,1.405,1.406H60.3A1.372,1.372,0,0,0,61.7,65.371V48.505A1.13,1.13,0,0,0,60.5,47.1ZM58.892,63.765H38.412V49.911H59.093V63.765Z" transform="translate(35.9 39.84)"/>
      <path id="Path_315" data-name="Path 315" d="M76.6,47.1H53.105A1.372,1.372,0,0,0,51.7,48.505V65.371a1.372,1.372,0,0,0,1.405,1.406H76.6A1.372,1.372,0,0,0,78,65.371V48.505C78.2,47.7,77.4,47.1,76.6,47.1ZM75.192,63.765H54.511V49.911H75.192V63.765Z" transform="translate(52.9 39.84)"/>
      <path id="Path_316" data-name="Path 316" d="M44.1,83.1H20.605A1.372,1.372,0,0,0,19.2,84.506v16.866a1.372,1.372,0,0,0,1.405,1.405H44.1a1.372,1.372,0,0,0,1.405-1.405V84.506C45.7,83.7,44.9,83.1,44.1,83.1ZM42.692,99.966H22.011V86.112H42.692V99.966Z" transform="translate(18.347 76.122)"/>
      <path id="Path_317" data-name="Path 317" d="M76.6,83.1H53.105A1.372,1.372,0,0,0,51.7,84.506v16.866a1.372,1.372,0,0,0,1.405,1.405H76.6A1.372,1.372,0,0,0,78,101.371V84.506C78.2,83.7,77.4,83.1,76.6,83.1ZM75.192,99.966H54.511V86.112H75.192V99.966Z" transform="translate(52.9 76.122)"/>
      <path id="Path_318" data-name="Path 318" d="M227.162,116.8H135.17V26.244A11.329,11.329,0,0,0,123.722,15H23.348A11.329,11.329,0,0,0,11.9,26.244V201.127a11.329,11.329,0,0,0,11.448,11.244h203.61a9.428,9.428,0,0,0,9.4-9.236v-77.1A9.251,9.251,0,0,0,227.162,116.8ZM14.966,42.708H132.1V184.663H14.966Zm8.382-24.7h99.965a8.562,8.562,0,0,1,8.586,8.433V39.9H14.966V26.445A8.262,8.262,0,0,1,23.348,18.012Zm96.49,191.548H23.348a8.562,8.562,0,0,1-8.586-8.433V187.675H131.9v13.453a8.562,8.562,0,0,1-8.586,8.433h-3.475Zm15.128-8.433V119.809h78.7V209.56H131.081A10.727,10.727,0,0,0,134.965,201.127Zm98.534,2.209a6.313,6.313,0,0,1-6.337,6.224h-10.63V119.809h10.426a6.313,6.313,0,0,1,6.337,6.224v77.3Z" transform="translate(10.989 7.488)"/>
      <path id="Path_319" data-name="Path 319" d="M116.906,83.1a1.372,1.372,0,0,0-1.405,1.405v22.689a1.405,1.405,0,1,0,2.811,0V84.706A1.324,1.324,0,0,0,116.906,83.1Z" transform="translate(119.402 76.122)"/>
      <path id="Path_320" data-name="Path 320" d="M97.206,51.361a.738.738,0,0,0,.6-.2l18.071-9.437a1.69,1.69,0,0,0,.8-1.405,2.032,2.032,0,0,0-.8-1.405L97.809,29.476a1.715,1.715,0,0,0-1.405,0,1.651,1.651,0,0,0-.8,1.2V49.554a1.1,1.1,0,0,0,.8,1.2C96.8,51.361,97.006,51.361,97.206,51.361Zm1.606-17.87,13.453,7.027L98.813,47.546Z" transform="translate(98.611 21.925)"/>
      <path id="Path_321" data-name="Path 321" d="M90.524,68.977h50.8a6.041,6.041,0,0,0,6.024-6.024V29.624a6.041,6.041,0,0,0-6.024-6.024h-50.8A6.041,6.041,0,0,0,84.5,29.624V62.753C84.7,66.166,87.311,68.977,90.524,68.977ZM87.512,29.624a3.088,3.088,0,0,1,3.012-3.012h50.8a3.088,3.088,0,0,1,3.012,3.012V62.753a3.088,3.088,0,0,1-3.012,3.012h-50.8a3.088,3.088,0,0,1-3.012-3.012Z" transform="translate(88.159 16.155)"/>
      <path id="Path_322" data-name="Path 322" d="M101.667,71.4H86.006A1.372,1.372,0,0,0,84.6,72.806V89.471a1.372,1.372,0,0,0,1.405,1.405h15.661a1.372,1.372,0,0,0,1.405-1.405V72.806A1.372,1.372,0,0,0,101.667,71.4ZM100.06,88.266H87.411V74.412H100.06Z" transform="translate(87.115 64.33)"/>
      <path id="Path_323" data-name="Path 323" d="M114.166,71.4H98.706A1.372,1.372,0,0,0,97.3,72.806V89.471a1.372,1.372,0,0,0,1.405,1.405h15.661a1.372,1.372,0,0,0,1.405-1.405V72.806A1.552,1.552,0,0,0,114.166,71.4ZM112.76,88.266H100.111V74.412H112.76Z" transform="translate(100.346 64.33)"/>
      <path id="Path_324" data-name="Path 324" d="M101.667,84.6H86.006A1.372,1.372,0,0,0,84.6,86.006v16.665a1.372,1.372,0,0,0,1.405,1.405h15.661a1.372,1.372,0,0,0,1.405-1.405V86.006A1.509,1.509,0,0,0,101.667,84.6Zm-1.606,16.866H87.411V87.612H100.06Z" transform="translate(87.115 77.634)"/>
      <path id="Path_325" data-name="Path 325" d="M114.166,84.6H98.706A1.372,1.372,0,0,0,97.3,86.006v16.665a1.372,1.372,0,0,0,1.405,1.405h15.661a1.372,1.372,0,0,0,1.405-1.405V86.006A1.724,1.724,0,0,0,114.166,84.6Zm-1.405,16.866H100.111V87.612H112.76Z" transform="translate(100.346 77.634)"/>
      <path id="Path_326" data-name="Path 326" d="M101.667,97.9H86.006A1.372,1.372,0,0,0,84.6,99.305v16.665a1.372,1.372,0,0,0,1.405,1.405h15.661a1.372,1.372,0,0,0,1.405-1.405V99.305A1.372,1.372,0,0,0,101.667,97.9Zm-1.606,16.665H87.411V100.711H100.06Z" transform="translate(87.115 91.038)"/>
      <path id="Path_327" data-name="Path 327" d="M114.166,97.9H98.706A1.372,1.372,0,0,0,97.3,99.305v16.665a1.372,1.372,0,0,0,1.405,1.405h15.661a1.372,1.372,0,0,0,1.405-1.405V99.305A1.552,1.552,0,0,0,114.166,97.9Zm-1.405,16.665H100.111V100.711H112.76Z" transform="translate(100.346 91.038)"/>
    </g>
  </g>
</svg>
