<svg xmlns="http://www.w3.org/2000/svg" width="260" height="230.473" viewBox="0 0 260 230.473">
  <g id="noun_technical_support_749459" data-name="noun_technical support_749459" transform="translate(-0.969 -7.8)">
    <g id="Group_73" data-name="Group 73" transform="translate(0.969 7.8)">
      <path id="Path_233" data-name="Path 233" d="M134.169,55.887h-1.43c-34.926.88-51.878-18.266-51.878-18.266L79.636,36.3l-1.021,1.32c-.2.22-17.157,19.147-51.878,18.266h-1.43v1.541c0,.66-2.247,70.424,53.921,101.675l.613.44.613-.44c56.168-31.031,53.921-100.794,53.921-101.675ZM78.206,154.921c-24.1-14.085-36.56-35.872-43.1-55.019h43.1Zm0-58.32H34.089a135.2,135.2,0,0,1-5.923-37.193h.817c27.369,0,43.3-11.444,49.223-16.726Zm3.064,58.32V99.9h43.1C117.83,119.048,105.166,140.616,81.27,154.921ZM125.387,96.6H81.27V42.462c5.923,5.282,21.854,16.726,49.223,16.726h.817A137.482,137.482,0,0,1,125.387,96.6Z" transform="translate(25.586 17.695)"/>
      <path id="Path_234" data-name="Path 234" d="M21.038,86.445a12.094,12.094,0,0,0-9.4,2.859,13.4,13.4,0,0,0-4.7,8.783,12.094,12.094,0,0,0,2.859,9.4,13.4,13.4,0,0,0,8.783,4.7h1.225a12.83,12.83,0,0,0,8.17-2.859,13.4,13.4,0,0,0,4.7-8.783A12.88,12.88,0,0,0,21.038,86.445Zm5.106,20.425A10.024,10.024,0,0,1,19,109.116a9.917,9.917,0,0,1-6.74-3.472A10.024,10.024,0,0,1,10.009,98.5a9.713,9.713,0,0,1,9.8-8.987h1.021a9.793,9.793,0,0,1,8.783,10.621A9.511,9.511,0,0,1,26.144,106.87Z" transform="translate(6.179 74.479)"/>
      <path id="Path_235" data-name="Path 235" d="M50.363,96.366,46.073,97.8a20.354,20.354,0,0,0-8.783-10.212L39.333,83.5a1.508,1.508,0,1,0-2.655-1.43l-2.042,4.085a19.34,19.34,0,0,0-6.127-1.634,20.79,20.79,0,0,0-7.149.613l-1.43-4.085a1.615,1.615,0,0,0-3.064,1.021l1.43,4.289A19.127,19.127,0,0,0,8.288,95.141L4.2,93.1a1.588,1.588,0,0,0-2.042.613,1.588,1.588,0,0,0,.613,2.042L6.858,97.8a19.625,19.625,0,0,0-1.021,13.276L1.548,112.5a1.685,1.685,0,0,0-1.021,2.042,1.536,1.536,0,0,0,1.43,1.021h.408l4.289-1.43a19.127,19.127,0,0,0,8.783,10.008l-2.042,4.085a1.588,1.588,0,0,0,.613,2.042.75.75,0,0,0,.613.2,2.067,2.067,0,0,0,1.43-.817l2.042-4.085a20.914,20.914,0,0,0,6.127,1.634h2.042a21.812,21.812,0,0,0,5.106-.613l1.43,4.289a1.536,1.536,0,0,0,1.43,1.021h.408a1.553,1.553,0,0,0,1.021-1.838l-1.43-4.289a18.764,18.764,0,0,0,5.515-3.268,24.055,24.055,0,0,0,4.7-5.515l4.085,2.042a.75.75,0,0,0,.613.2,2.067,2.067,0,0,0,1.43-.817,1.588,1.588,0,0,0-.613-2.042l-4.085-2.042a22.745,22.745,0,0,0,1.634-6.127,20.79,20.79,0,0,0-.613-7.149l4.289-1.43A1.553,1.553,0,0,0,52.2,97.8C52,96.57,51.18,96.162,50.363,96.366ZM44.439,107.6A17.856,17.856,0,0,1,37.9,119.855,18.136,18.136,0,0,1,8.288,104.128a17.988,17.988,0,0,1,17.974-16.34H27.9A18.136,18.136,0,0,1,44.439,107.6Z" transform="translate(-0.475 67.932)"/>
      <path id="Path_236" data-name="Path 236" d="M74.09,102.532a1.481,1.481,0,0,0,2.042,0,1.6,1.6,0,0,0,0-2.247l-2.451-2.451a1.589,1.589,0,0,0-2.247,2.247Z" transform="translate(73.335 85.98)"/>
      <path id="Path_237" data-name="Path 237" d="M75.55,103.981,78,106.432a1.481,1.481,0,0,0,2.042,0,1.6,1.6,0,0,0,0-2.247l-2.451-2.451a1.6,1.6,0,0,0-2.247,0C74.937,102.552,74.937,103.573,75.55,103.981Z" transform="translate(77.612 90.136)"/>
      <path id="Path_238" data-name="Path 238" d="M71.55,106.532a1.481,1.481,0,0,0,2.042,0l2.451-2.451a1.589,1.589,0,0,0-2.247-2.247l-2.451,2.451A1.857,1.857,0,0,0,71.55,106.532Z" transform="translate(73.424 90.241)"/>
      <path id="Path_239" data-name="Path 239" d="M76.66,102.941a1.56,1.56,0,0,0,1.021-.408l2.451-2.451a1.589,1.589,0,1,0-2.247-2.247l-2.451,2.451a1.6,1.6,0,0,0,0,2.247A8.033,8.033,0,0,0,76.66,102.941Z" transform="translate(77.522 85.98)"/>
      <path id="Path_240" data-name="Path 240" d="M36.29,22.632a1.481,1.481,0,0,0,2.042,0,1.6,1.6,0,0,0,0-2.247l-2.451-2.451a1.589,1.589,0,0,0-2.247,2.247Z" transform="translate(33.761 2.286)"/>
      <path id="Path_241" data-name="Path 241" d="M40.29,26.632a1.481,1.481,0,0,0,2.042,0,1.6,1.6,0,0,0,0-2.247l-2.451-2.451a1.589,1.589,0,0,0-2.247,2.247Z" transform="translate(37.948 6.456)"/>
      <path id="Path_242" data-name="Path 242" d="M34.756,27.141a1.56,1.56,0,0,0,1.021-.408l2.451-2.451a1.589,1.589,0,0,0-2.247-2.247l-2.247,2.451a1.6,1.6,0,0,0,0,2.247A1.56,1.56,0,0,0,34.756,27.141Z" transform="translate(33.865 6.56)"/>
      <path id="Path_243" data-name="Path 243" d="M38.86,23.041a1.56,1.56,0,0,0,1.021-.408l2.451-2.451a1.589,1.589,0,0,0-2.247-2.247l-2.451,2.451a1.6,1.6,0,0,0,0,2.247A1.5,1.5,0,0,0,38.86,23.041Z" transform="translate(37.948 2.286)"/>
      <path id="Path_244" data-name="Path 244" d="M112.832,58.8a6.332,6.332,0,1,0,6.332,6.332A6.363,6.363,0,0,0,112.832,58.8Zm0,9.6a3.268,3.268,0,1,1,3.268-3.268A3.226,3.226,0,0,1,112.832,68.4Z" transform="translate(110.608 45.602)"/>
      <path id="Path_245" data-name="Path 245" d="M74.508,34.1a4.9,4.9,0,1,0-4.9-4.9A4.717,4.717,0,0,0,74.508,34.1Zm0-6.944A1.838,1.838,0,1,1,72.67,29,1.831,1.831,0,0,1,74.508,27.159Z" transform="translate(71.894 9.401)"/>
      <path id="Path_246" data-name="Path 246" d="M10.834,78.614a1.611,1.611,0,0,0,1.634-1.634V65.134a1.634,1.634,0,1,0-3.268,0V76.98A1.611,1.611,0,0,0,10.834,78.614Z" transform="translate(8.621 50.526)"/>
      <path id="Path_247" data-name="Path 247" d="M10.834,79.749a1.611,1.611,0,0,0,1.634-1.634V74.234a1.634,1.634,0,1,0-3.268,0v3.881A1.757,1.757,0,0,0,10.834,79.749Z" transform="translate(8.621 60.044)"/>
      <path id="Path_248" data-name="Path 248" d="M16.034,30.468H33.395a1.634,1.634,0,1,0,0-3.268H16.034A1.611,1.611,0,0,0,14.4,28.834,1.757,1.757,0,0,0,16.034,30.468Z" transform="translate(14.042 12.424)"/>
      <path id="Path_249" data-name="Path 249" d="M28.234,30.468h5.719a1.634,1.634,0,0,0,0-3.268H28.234A1.611,1.611,0,0,0,26.6,28.834,1.757,1.757,0,0,0,28.234,30.468Z" transform="translate(26.879 12.424)"/>
      <path id="Path_250" data-name="Path 250" d="M38.127,30.2H24.034a1.634,1.634,0,1,0,0,3.268H38.127a1.634,1.634,0,0,0,0-3.268Z" transform="translate(22.485 15.65)"/>
      <path id="Path_251" data-name="Path 251" d="M18.834,30.2a1.634,1.634,0,0,0,0,3.268h4.085a1.634,1.634,0,0,0,0-3.268Z" transform="translate(16.961 15.65)"/>
      <path id="Path_252" data-name="Path 252" d="M111.071,83.478a1.56,1.56,0,0,0,1.021-.408l.613-.613c.408-.408.613-.817,1.021-1.021a1.6,1.6,0,1,0-2.451-2.042l-.817.817-.408.408a1.857,1.857,0,0,0-.2,2.247A1.765,1.765,0,0,0,111.071,83.478Z" transform="translate(113.799 66.551)"/>
      <path id="Path_253" data-name="Path 253" d="M94.876,68.4H92.834a1.634,1.634,0,1,0,0,3.268h2.042a1.611,1.611,0,0,0,1.634-1.634C96.306,69.217,95.693,68.4,94.876,68.4Z" transform="translate(94.508 55.642)"/>
      <path id="Path_254" data-name="Path 254" d="M93.7,82.734a1.611,1.611,0,0,0,1.634,1.634h2.042a1.634,1.634,0,0,0,0-3.268H95.334C94.517,81.3,93.7,81.917,93.7,82.734Z" transform="translate(97.126 68.938)"/>
      <path id="Path_255" data-name="Path 255" d="M97.8,82.734a1.611,1.611,0,0,0,1.634,1.634h2.042a1.634,1.634,0,1,0,0-3.268H99.434C98.413,81.3,97.8,81.917,97.8,82.734Z" transform="translate(101.418 68.938)"/>
      <path id="Path_256" data-name="Path 256" d="M98.876,68.4H96.834a1.634,1.634,0,0,0,0,3.268h2.042a1.634,1.634,0,1,0,0-3.268Z" transform="translate(98.696 55.642)"/>
      <path id="Path_257" data-name="Path 257" d="M89.7,82.734a1.611,1.611,0,0,0,1.634,1.634h2.042a1.634,1.634,0,0,0,0-3.268H91.334C90.313,81.3,89.7,81.917,89.7,82.734Z" transform="translate(92.938 68.938)"/>
      <path id="Path_258" data-name="Path 258" d="M90.776,68.4H88.734a1.634,1.634,0,0,0,0,3.268h2.042a1.611,1.611,0,0,0,1.634-1.634A1.757,1.757,0,0,0,90.776,68.4Z" transform="translate(90.216 55.642)"/>
      <path id="Path_259" data-name="Path 259" d="M112.725,80.206h.408a1.35,1.35,0,0,0,1.43-1.225,8.378,8.378,0,0,0,.2-2.247,1.535,1.535,0,0,0-3.064-.2c0,.613-.2,1.225-.2,1.838A1.786,1.786,0,0,0,112.725,80.206Z" transform="translate(115.821 62.659)"/>
      <path id="Path_260" data-name="Path 260" d="M102.976,68.4h-2.042a1.634,1.634,0,0,0,0,3.268h2.042a1.611,1.611,0,0,0,1.634-1.634A1.757,1.757,0,0,0,102.976,68.4Z" transform="translate(102.988 55.642)"/>
      <path id="Path_261" data-name="Path 261" d="M111.512,69.948c-.613-.408-1.43-.613-2.042-1.021a1.555,1.555,0,1,0-1.225,2.859,4.105,4.105,0,0,1,1.634.817c.2.2.408.2.817.2a1.542,1.542,0,0,0,1.43-.817A1.416,1.416,0,0,0,111.512,69.948Z" transform="translate(111.519 56.139)"/>
      <path id="Path_262" data-name="Path 262" d="M113.055,76.206a.75.75,0,0,0,.613-.2,1.673,1.673,0,0,0,.817-2.042c-.408-.613-.817-1.43-1.225-2.042a1.473,1.473,0,1,0-2.451,1.634,4.106,4.106,0,0,1,.817,1.634A2.114,2.114,0,0,0,113.055,76.206Z" transform="translate(114.878 58.676)"/>
      <path id="Path_263" data-name="Path 263" d="M105.9,82.965a1.535,1.535,0,0,0,1.43,1.43h.2a7.343,7.343,0,0,0,2.247-.408,1.487,1.487,0,0,0-.817-2.859c-.613.2-1.225.2-1.838.408C106.513,81.331,105.9,82.148,105.9,82.965Z" transform="translate(109.983 68.911)"/>
      <path id="Path_264" data-name="Path 264" d="M101.8,82.734a1.611,1.611,0,0,0,1.634,1.634h2.042a1.634,1.634,0,0,0,0-3.268h-2.042C102.617,81.3,101.8,81.917,101.8,82.734Z" transform="translate(105.606 68.938)"/>
      <path id="Path_265" data-name="Path 265" d="M107.076,68.4h-2.042a1.634,1.634,0,1,0,0,3.268h2.042a1.611,1.611,0,0,0,1.634-1.634C108.506,69.217,107.893,68.4,107.076,68.4Z" transform="translate(107.377 55.642)"/>
      <path id="Path_266" data-name="Path 266" d="M86.1,82.734a1.536,1.536,0,0,0,1.021,1.43c.2.2.408.2.817.2h1.021a1.733,1.733,0,0,0,1.634-1.43A1.779,1.779,0,0,0,89.368,81.3c-.2,0-.408-.2-.613-.2H87.734C86.713,81.3,86.1,81.917,86.1,82.734Z" transform="translate(89.168 68.938)"/>
      <path id="Path_267" data-name="Path 267" d="M92.534,95.9a1.634,1.634,0,0,0,0,3.268h2.042a1.634,1.634,0,0,0,0-3.268Z" transform="translate(94.194 84.432)"/>
      <path id="Path_268" data-name="Path 268" d="M90.576,95.9H88.534a1.634,1.634,0,0,0,0,3.268h2.042a1.634,1.634,0,0,0,0-3.268Z" transform="translate(90.006 84.432)"/>
      <path id="Path_269" data-name="Path 269" d="M83.384,96.244A1.588,1.588,0,0,0,84,98.287a8.536,8.536,0,0,0,2.042.817h.408a1.492,1.492,0,0,0,1.43-1.225,1.461,1.461,0,0,0-1.021-1.838c-.613-.2-1.021-.408-1.634-.613A1.778,1.778,0,0,0,83.384,96.244Z" transform="translate(86.152 83.882)"/>
      <path id="Path_270" data-name="Path 270" d="M80.4,90.334v2.042a1.634,1.634,0,0,0,3.268,0V90.334A1.611,1.611,0,0,0,82.034,88.7C81.013,88.9,80.4,89.517,80.4,90.334Z" transform="translate(83.199 76.897)"/>
      <path id="Path_271" data-name="Path 271" d="M85.031,82.3,83.193,83.53a1.6,1.6,0,0,0-.2,2.247,1.456,1.456,0,0,0,1.225.613c.408,0,.613-.2,1.021-.408.408-.408,1.021-.613,1.43-1.021a1.458,1.458,0,0,0,.613-2.042A1.643,1.643,0,0,0,85.031,82.3Z" transform="translate(85.524 69.986)"/>
      <path id="Path_272" data-name="Path 272" d="M83.486,85.082a1.492,1.492,0,0,0-2.042.817c-.2.613-.613,1.43-.817,2.042a1.461,1.461,0,0,0,1.021,1.838h.408a1.492,1.492,0,0,0,1.43-1.225c.2-.613.408-1.021.613-1.634A1.246,1.246,0,0,0,83.486,85.082Z" transform="translate(83.382 72.941)"/>
      <path id="Path_273" data-name="Path 273" d="M81.7,92.778a1.436,1.436,0,0,0-.817,2.042A9.541,9.541,0,0,0,81.9,96.863a1.679,1.679,0,0,0,1.225.817,1.228,1.228,0,0,0,.817-.2,1.458,1.458,0,0,0,.613-2.042c-.2-.408-.613-1.021-.817-1.43C83.333,92.778,82.516,92.37,81.7,92.778Z" transform="translate(83.536 81.006)"/>
      <path id="Path_274" data-name="Path 274" d="M98.068,96.1a.75.75,0,0,0-.613-.2H96.434a1.634,1.634,0,0,0,0,3.268h.408a3.982,3.982,0,0,0,1.634.2h.2a1.4,1.4,0,0,0,1.43-1.43,1.578,1.578,0,0,0-1.43-1.634A.75.75,0,0,0,98.068,96.1Z" transform="translate(98.277 84.432)"/>
      <path id="Path_275" data-name="Path 275" d="M102.318,98.667a11.674,11.674,0,0,0-1.634-1.43,1.615,1.615,0,1,0-1.838,2.655,5.415,5.415,0,0,1,1.225,1.021c.2.408.613.408,1.021.408a1.56,1.56,0,0,0,1.021-.408C102.93,100.1,102.93,99.279,102.318,98.667Z" transform="translate(101.803 85.552)"/>
      <path id="Path_276" data-name="Path 276" d="M100.529,103.292a1.578,1.578,0,0,0,1.634,1.43h0a1.578,1.578,0,0,0,1.43-1.634,7.257,7.257,0,0,0-.408-2.042,1.562,1.562,0,1,0-3.064.613A4.808,4.808,0,0,1,100.529,103.292Z" transform="translate(103.802 88.579)"/>
      <path id="Path_277" data-name="Path 277" d="M101.834,107.489a1.611,1.611,0,0,0,1.634-1.634v-1.021a1.634,1.634,0,0,0-3.268,0v1.021C100.4,106.672,101.017,107.489,101.834,107.489Z" transform="translate(103.927 92.143)"/>
      <path id="Path_278" data-name="Path 278" d="M147.9,70.634h5.719l-.817-2.042a6.881,6.881,0,0,0-2.247-3.472,10.072,10.072,0,0,0-8.374-3.064L125.224,45.1l17.769-17.769.2.2,4.085-.408,4.7-7.149L148.3,16.1l-7.149,4.493-.408,4.085.2.2L123.181,42.652,100.918,20.593a6.643,6.643,0,0,0-9.4,9.4l22.263,22.263-1.021,1.021-2.247-2.247a4.808,4.808,0,0,0-6.74,0,4.736,4.736,0,0,0-1.225,4.493L87.438,70.429a6.411,6.411,0,0,0,0,8.987l1.021,1.021a6.336,6.336,0,0,0,4.493,1.838,8.686,8.686,0,0,0,2.247-.408,5.288,5.288,0,0,0,2.247-1.43l15.114-14.91c.408,0,.613.2,1.021.2a5.794,5.794,0,0,0,3.472-1.43h0a4.808,4.808,0,0,0,0-6.74l-2.042-2.042,1.021-1.021,17.361,17.361a9.567,9.567,0,0,0,2.859,6.944,9.147,9.147,0,0,0,6.944,3.064h.2a9.726,9.726,0,0,0,6.944-2.859A10.883,10.883,0,0,0,153,74.923l.613-2.042H148.1a1.318,1.318,0,0,1-1.225-1.225C146.67,71.246,147.078,70.634,147.9,70.634Zm-3.881-48.2,3.881-2.451.2.2-2.451,3.881-1.225.2-.613-.613ZM95,78.4a4.273,4.273,0,0,1-1.225.817A3.133,3.133,0,0,1,90.3,78.4l-1.021-1.021a3.473,3.473,0,0,1,.2-4.7l14.5-14.3h0L109.7,64.1ZM114.6,62.26a1.864,1.864,0,0,1-2.451,0l-5.31-5.515-1.225-1.225a1.618,1.618,0,0,1,.2-2.247,2.042,2.042,0,0,1,2.451,0l6.536,6.536A2.189,2.189,0,0,1,114.6,62.26Zm21.242,2.859h0a3.586,3.586,0,0,1-.817,1.021l-1.634,1.634L93.77,27.946a3.576,3.576,0,0,1,0-5.106,3.883,3.883,0,0,1,2.655-1.021A4.3,4.3,0,0,1,99.08,22.84l39.828,39.828-1.021,1.021c-.2.2-.613.408-.817.613ZM147.9,76.148h.817a2.82,2.82,0,0,0-.613.817,6.44,6.44,0,0,1-4.9,1.838,6.524,6.524,0,0,1-4.9-2.247,6.829,6.829,0,0,1-.817-8.374l2.247-2.247a6.883,6.883,0,0,1,8.783,1.021l.408.408H148.1a4.314,4.314,0,0,0-4.289,4.289A3.98,3.98,0,0,0,147.9,76.148Z" transform="translate(88.821 0.852)"/>
      <path id="Path_279" data-name="Path 279" d="M92.047,19.5a2.247,2.247,0,1,0,2.247,2.247A2.414,2.414,0,0,0,92.047,19.5Zm0,3.064a.817.817,0,1,1,.817-.817A.879.879,0,0,1,92.047,22.564Z" transform="translate(93.041 4.397)"/>
      <path id="Path_280" data-name="Path 280" d="M195.208,7.8a51.642,51.642,0,0,0-51.593,51.6,62.018,62.018,0,0,0,.409,6.347c-33.986-5.528-50.774-22.933-50.774-23.137L92.022,41.38l-1.228,1.229c-.2.2-24.773,26-75.751,24.98H13.609v1.433c0,1.024-3.276,94.392,77.8,136.163l.614.409.614-.409c34.6-17.814,54.05-44.637,64.7-70.436a1.564,1.564,0,0,0,1.024.41h1.024a1.638,1.638,0,0,0,0-3.276h-.819a165.882,165.882,0,0,0,8.6-29.28,50.143,50.143,0,0,0,28.049,8.19,51.5,51.5,0,1,0,0-102.992ZM92.022,202.113C18.932,164.029,16.476,82.741,16.68,70.66,62.541,71.07,86.7,51,92.227,45.885c4.3,4.1,21.292,18.428,52.412,23.137A44.3,44.3,0,0,0,164.7,100.759C158.151,133.315,140.544,176.724,92.022,202.113Zm103.186-94.188a48.787,48.787,0,0,1-27.434-8.395v-.2l-.819-.614c-.2-.2-.409-.2-.614-.41A48.068,48.068,0,0,1,147.3,67.179V66.36h0a38.591,38.591,0,0,1-.409-6.962,48.42,48.42,0,1,1,48.317,48.527Z" transform="translate(13.199 -7.8)"/>
      <path id="Path_281" data-name="Path 281" d="M164.151,110.485H125.14v-2.451a1.611,1.611,0,0,0-1.634-1.634,1.5,1.5,0,0,0-1.634,1.634v11.029H84.495l-3.676-3.881c-.408-.408-.817-.613-1.225-.408L66.93,116.408a1.535,1.535,0,0,0-1.43,1.43v5.719a1.4,1.4,0,0,0,1.43,1.43l12.663,1.634h.2a1.56,1.56,0,0,0,1.021-.408l3.676-3.881h37.377v11.029a1.611,1.611,0,0,0,1.634,1.634,1.5,1.5,0,0,0,1.634-1.634V130.91h39.011a6.8,6.8,0,0,0,6.74-6.74v-6.536a5.915,5.915,0,0,0-2.042-4.7A5.242,5.242,0,0,0,164.151,110.485ZM79.184,123.148l-10.417-1.225v-2.859l10.417-1.225L81.84,120.7Zm88.643.613a3.661,3.661,0,0,1-3.676,3.676H125.14V113.549h39.011a4.3,4.3,0,0,1,2.655,1.021,3.883,3.883,0,0,1,1.021,2.655Z" transform="translate(67.868 95.479)"/>
      <path id="Path_282" data-name="Path 282" d="M130,112.5H98.134a1.634,1.634,0,0,0,0,3.268H130.2a1.611,1.611,0,0,0,1.634-1.634A1.964,1.964,0,0,0,130,112.5Z" transform="translate(100.184 101.838)"/>
    </g>
  </g>
</svg>
