<svg xmlns="http://www.w3.org/2000/svg" width="176.685" height="176.69" viewBox="0 0 176.685 176.69">
  <g id="repair" transform="translate(0 0)">
    <path id="Path_88" data-name="Path 88" d="M340.791,155.148a3.45,3.45,0,1,0,3.451,3.45A3.45,3.45,0,0,0,340.791,155.148Zm0,0" transform="translate(-221.097 -101.607)" fill="#383838"/>
    <path id="Path_89" data-name="Path 89" d="M159.1,336.84a3.451,3.451,0,1,0,3.451,3.451A3.45,3.45,0,0,0,159.1,336.84Zm0,0" transform="translate(-102.104 -220.597)" fill="#383838"/>
    <path id="Path_90" data-name="Path 90" d="M172.9,21.23a3.448,3.448,0,0,0-3.23.93L155.36,36.58H148.5l-7.55-7.823V21.8l14.1-14.312A3.451,3.451,0,0,0,153.7,1.8a34.536,34.536,0,0,0-44.361,41.652l-25.42,25.42L41.565,26.424V18.093a3.45,3.45,0,0,0-1.676-2.959L15.489.491a3.448,3.448,0,0,0-4.215.519l-9.76,9.758a3.454,3.454,0,0,0-.519,4.217l14.64,24.4a3.451,3.451,0,0,0,2.958,1.676l8.328,0L69.274,83.512,43.951,108.835A34.531,34.531,0,0,0,2.3,153.2a3.451,3.451,0,0,0,5.72,1.329l14.305-14.419h6.9l7.858,7.858v6.9L22.66,169.166a3.451,3.451,0,0,0,1.329,5.72,34.518,34.518,0,0,0,39.029-12.572,34.124,34.124,0,0,0,5.333-29.08L88.689,112.9l4.659,5.061-2.138,2.137a3.452,3.452,0,0,0,4.881,4.881l1.936-1.936,43.712,47.481c.032.035.066.069.1.1a20.708,20.708,0,0,0,29.285-29.285c-.035-.035-.071-.069-.108-.1L123.46,97.607l1.914-1.914a3.451,3.451,0,0,0-4.881-4.88l-2.123,2.125-5.07-4.653,20.436-20.436a34.529,34.529,0,0,0,41.649-44.359A3.448,3.448,0,0,0,172.9,21.23ZM30.795,35.177a3.416,3.416,0,0,0-2.441-.979l-7.805,0L8.3,13.745,14.249,7.8,34.663,20.047v7.805a3.45,3.45,0,0,0,1.008,2.437L79.036,73.752l-4.881,4.88Zm87.78,67.316,47.717,43.775a13.806,13.806,0,0,1-19.526,19.522l-43.855-47.636Zm-5.09-4.671-15.253,15.25-4.659-5.061,14.842-14.843Zm29.192-35.706a27.579,27.579,0,0,1-8.82-1.438,3.457,3.457,0,0,0-3.541.83c-17.3,17.3-54.58,54.578-68.307,68.307a3.45,3.45,0,0,0-.83,3.543,27.635,27.635,0,0,1-26.17,36.427A28.269,28.269,0,0,1,32,169.622l10.961-10.876a3.45,3.45,0,0,0,1.02-2.449v-9.763a3.451,3.451,0,0,0-1.011-2.44l-9.88-9.88a3.451,3.451,0,0,0-2.44-1.011H20.888a3.455,3.455,0,0,0-2.451,1.02L7.562,145.185a27.918,27.918,0,0,1-.162-3.009,27.636,27.636,0,0,1,36.428-26.17,3.448,3.448,0,0,0,3.541-.83c.19-.189,68.258-68.258,68.307-68.307a3.451,3.451,0,0,0,.83-3.541A27.632,27.632,0,0,1,142.675,6.9a28.2,28.2,0,0,1,3.1.171L135.041,17.966a3.449,3.449,0,0,0-.992,2.421V30.15a3.447,3.447,0,0,0,.968,2.4l9.535,9.88a3.448,3.448,0,0,0,2.483,1.054H156.8a3.449,3.449,0,0,0,2.449-1.02L170.121,31.5a27.916,27.916,0,0,1,.162,3.009A27.638,27.638,0,0,1,142.677,62.116Zm0,0" transform="translate(-0.5 0.001)" fill="#383838"/>
    <path id="Path_91" data-name="Path 91" d="M228.119,184.437l-43.185,43.185a3.451,3.451,0,0,0,4.881,4.88L233,189.317a3.451,3.451,0,0,0-4.881-4.88Zm0,0" transform="translate(-120.625 -120.125)" fill="#383838"/>
    <path id="Path_92" data-name="Path 92" d="M377.4,381.973a3.451,3.451,0,0,0,4.873-4.888l-31.106-31.006a3.451,3.451,0,0,0-4.873,4.888Zm0,0" transform="translate(-226.296 -225.988)" fill="#383838"/>
  </g>
</svg>
