<svg xmlns="http://www.w3.org/2000/svg" width="257" height="257" viewBox="0 0 257 257">
  <g id="Group_60" data-name="Group 60" transform="translate(-1498 -543)">
    <g id="Ellipse_1" data-name="Ellipse 1" transform="translate(1498 543)" fill="none" stroke="#505050" stroke-width="15">
      <circle cx="128.5" cy="128.5" r="128.5" stroke="none"/>
      <circle cx="128.5" cy="128.5" r="121" fill="none"/>
    </g>
    <path id="_002-design" data-name="002-design" d="M133.595,37.339A21.881,21.881,0,0,0,102.644,6.4L71.862,37.2,34.853.187.361,34.678,37.378,71.695l-23,23.01a26.217,26.217,0,0,0-6.326,10.247l-.081.247L0,139.994l34.827-7.955.246-.081a26.268,26.268,0,0,0,10.26-6.32l22.989-23,37,37,34.492-34.492-37.006-37Zm-24.989,9.545L93.1,31.4l5.93-5.932,15.5,15.486ZM125.86,14.118a10.955,10.955,0,0,1,.009,15.5l-3.608,3.609-15.5-15.486,3.612-3.613a10.968,10.968,0,0,1,15.489-.007ZM15.812,34.678,34.853,15.637l10.73,10.73-9.4,9.4L43.9,43.5l9.4-9.4,10.831,10.83L45.1,63.968Zm1.978,76.577,10.974,10.962-14.229,3.25Zm20.968,5.5-15.5-15.486L85.381,39.125l15.5,15.486Zm67.03-30.187-9.4,9.4,7.725,7.725,9.4-9.4,10.848,10.848L105.32,124.186,76.045,94.911,95.082,75.867Zm0,0" transform="translate(1557.001 601.999)" fill="#505050"/>
  </g>
</svg>
