<svg xmlns="http://www.w3.org/2000/svg" width="257" height="257" viewBox="0 0 257 257">
  <g id="Group_62" data-name="Group 62" transform="translate(-1498 -1217)">
    <g id="Ellipse_3" data-name="Ellipse 3" transform="translate(1498 1217)" fill="none" stroke="#505050" stroke-width="15">
      <circle cx="128.5" cy="128.5" r="128.5" stroke="none"/>
      <circle cx="128.5" cy="128.5" r="121" fill="none"/>
    </g>
    <path id="_012-customer-service" data-name="012-customer-service" d="M110.468,82.879V62.617h8.2A10.95,10.95,0,0,0,129.609,51.68V35.274a10.95,10.95,0,0,0-10.937-10.938H107.11a40.464,40.464,0,0,0-74.221,0H21.327A10.95,10.95,0,0,0,10.39,35.274V51.68A10.95,10.95,0,0,0,21.327,62.617H36.146A40.8,40.8,0,0,0,47.1,73.818,70.112,70.112,0,0,0,0,140H10.937A59.13,59.13,0,0,1,70,80.938a40.362,40.362,0,0,0,29.531-12.83v18.3A10.95,10.95,0,0,1,88.593,97.344H82.2a10.937,10.937,0,1,0,0,10.937h6.388a21.9,21.9,0,0,0,19.988-13A58.89,58.89,0,0,1,129.062,140H140a69.823,69.823,0,0,0-29.531-57.122Zm8.2-47.6V51.68h-8.2V40.469a40.685,40.685,0,0,0-.332-5.2ZM21.328,51.68V35.274h8.535A40.622,40.622,0,0,0,31.112,51.68ZM70,70A29.531,29.531,0,1,1,99.531,40.469,29.565,29.565,0,0,1,70,70Zm0,0" transform="translate(1557.001 1276)" fill="#505050"/>
  </g>
</svg>
